<svg width="16" height="16" viewBox="0 0 16 16" fill="none" xmlns="http://www.w3.org/2000/svg">
<g clip-path="url(#clip0_1_1548)">
<path d="M9.99992 2C10.3679 2 10.6666 2.29867 10.6666 2.66667V4H13.9999C14.3679 4 14.6666 4.29867 14.6666 4.66667V13.3333C14.6666 13.7013 14.3679 14 13.9999 14H1.99992C1.63192 14 1.33325 13.7013 1.33325 13.3333V4.66667C1.33325 4.29867 1.63192 4 1.99992 4H5.33325V2.66667C5.33325 2.29867 5.63192 2 5.99992 2H9.99992ZM5.33325 5.33333H3.99992V12.6667H5.33325V5.33333ZM11.9999 5.33333H10.6666V12.6667H11.9999V5.33333ZM9.33325 3.33333H6.66659V4H9.33325V3.33333Z" fill="white"/>
</g>
<defs>
<clipPath id="clip0_1_1548">
<rect width="16" height="16" fill="white"/>
</clipPath>
</defs>
</svg>
