<svg width="17" height="17" viewBox="0 0 17 17" fill="none" xmlns="http://www.w3.org/2000/svg">
<g clip-path="url(#clip0_1_2094)">
<path d="M1.41671 6.37508H3.54171V14.8751H1.41671C1.22885 14.8751 1.04868 14.8005 0.91584 14.6676C0.783002 14.5348 0.708374 14.3546 0.708374 14.1667V7.08341C0.708374 6.89555 0.783002 6.71538 0.91584 6.58254C1.04868 6.44971 1.22885 6.37508 1.41671 6.37508ZM5.16592 5.4592L9.69925 0.925871C9.7595 0.865446 9.83954 0.828805 9.92465 0.822689C10.0098 0.816572 10.0942 0.84139 10.1625 0.892579L10.7667 1.34591C10.9345 1.47189 11.0613 1.64472 11.131 1.84264C11.2007 2.04055 11.2102 2.25467 11.1584 2.458L10.3417 5.66675H14.875C15.2508 5.66675 15.6111 5.816 15.8768 6.08168C16.1425 6.34735 16.2917 6.70769 16.2917 7.08341V8.57375C16.2919 8.75888 16.2558 8.94225 16.1855 9.1135L13.9932 14.4366C13.9397 14.5664 13.8489 14.6774 13.7322 14.7554C13.6155 14.8335 13.4783 14.8751 13.338 14.8751H5.66671C5.47885 14.8751 5.29868 14.8005 5.16584 14.6676C5.033 14.5348 4.95837 14.3546 4.95837 14.1667V5.96C4.95841 5.77215 5.03307 5.59201 5.16592 5.4592Z" fill="#37EDB0"/>
</g>
<defs>
<clipPath id="clip0_1_2094">
<rect width="17" height="17" fill="white"/>
</clipPath>
</defs>
</svg>
