<svg width="17" height="17" viewBox="0 0 17 17" fill="none" xmlns="http://www.w3.org/2000/svg">
<g clip-path="url(#clip0_1_2091)">
<path d="M15.5834 10.625H13.4584V2.125H15.5834C15.7712 2.125 15.9514 2.19963 16.0842 2.33247C16.2171 2.4653 16.2917 2.64547 16.2917 2.83333V9.91667C16.2917 10.1045 16.2171 10.2847 16.0842 10.4175C15.9514 10.5504 15.7712 10.625 15.5834 10.625ZM11.8342 11.5409L7.30083 16.0742C7.24058 16.1346 7.16054 16.1713 7.07543 16.1774C6.99032 16.1835 6.90586 16.1587 6.83758 16.1075L6.23338 15.6542C6.06557 15.5282 5.93882 15.3554 5.86911 15.1574C5.7994 14.9595 5.78985 14.7454 5.84167 14.5421L6.65837 11.3333H2.12504C1.74932 11.3333 1.38898 11.1841 1.12331 10.9184C0.85763 10.6527 0.708375 10.2924 0.708375 9.91667V8.42633C0.708184 8.2412 0.744281 8.05783 0.814625 7.88658L3.00762 2.56417C3.06095 2.43437 3.15162 2.32333 3.26815 2.24514C3.38468 2.16695 3.5218 2.12514 3.66212 2.125H11.3334C11.5212 2.125 11.7014 2.19963 11.8342 2.33247C11.9671 2.4653 12.0417 2.64547 12.0417 2.83333V11.0401C12.0417 11.2279 11.967 11.4081 11.8342 11.5409Z" fill="#FF7581"/>
</g>
<defs>
<clipPath id="clip0_1_2091">
<rect width="17" height="17" fill="white"/>
</clipPath>
</defs>
</svg>
