<svg width="20" height="20" viewBox="0 0 20 20" fill="none" xmlns="http://www.w3.org/2000/svg">
<g clip-path="url(#clip0_100_549)">
<path d="M1.66675 16.6667H18.3334V18.3334H1.66675V16.6667ZM3.33341 10.0001H5.00008V15.8334H3.33341V10.0001ZM7.50008 10.0001H9.16675V15.8334H7.50008V10.0001ZM10.8334 10.0001H12.5001V15.8334H10.8334V10.0001ZM15.0001 10.0001H16.6667V15.8334H15.0001V10.0001ZM1.66675 5.83341L10.0001 1.66675L18.3334 5.83341V9.16675H1.66675V5.83341ZM10.0001 6.66675C10.2211 6.66675 10.4331 6.57895 10.5893 6.42267C10.7456 6.26639 10.8334 6.05443 10.8334 5.83341C10.8334 5.6124 10.7456 5.40044 10.5893 5.24416C10.4331 5.08788 10.2211 5.00008 10.0001 5.00008C9.77907 5.00008 9.56711 5.08788 9.41083 5.24416C9.25455 5.40044 9.16675 5.6124 9.16675 5.83341C9.16675 6.05443 9.25455 6.26639 9.41083 6.42267C9.56711 6.57895 9.77907 6.66675 10.0001 6.66675V6.66675Z" fill="#292929"/>
</g>
<defs>
<clipPath id="clip0_100_549">
<rect width="20" height="20" fill="white"/>
</clipPath>
</defs>
</svg>
