<svg width="20" height="20" viewBox="0 0 20 20" fill="none" xmlns="http://www.w3.org/2000/svg">
<g clip-path="url(#clip0_1_2229)">
<path d="M14.1667 2.50004H17.5C17.721 2.50004 17.933 2.58784 18.0893 2.74412C18.2456 2.9004 18.3334 3.11236 18.3334 3.33337V16.6667C18.3334 16.8877 18.2456 17.0997 18.0893 17.256C17.933 17.4122 17.721 17.5 17.5 17.5H2.50002C2.27901 17.5 2.06704 17.4122 1.91076 17.256C1.75448 17.0997 1.66669 16.8877 1.66669 16.6667V3.33337C1.66669 3.11236 1.75448 2.9004 1.91076 2.74412C2.06704 2.58784 2.27901 2.50004 2.50002 2.50004H5.83335V0.833374H7.50002V2.50004H12.5V0.833374H14.1667V2.50004ZM3.33335 7.50004V15.8334H16.6667V7.50004H3.33335ZM5.00002 9.16671H6.66669V10.8334H5.00002V9.16671ZM5.00002 12.5H6.66669V14.1667H5.00002V12.5ZM8.33335 9.16671H15V10.8334H8.33335V9.16671ZM8.33335 12.5H12.5V14.1667H8.33335V12.5Z" fill="#292929"/>
</g>
<defs>
<clipPath id="clip0_1_2229">
<rect width="20" height="20" fill="white"/>
</clipPath>
</defs>
</svg>
