<svg width="15" height="15" viewBox="0 0 15 15" fill="none" xmlns="http://www.w3.org/2000/svg">
<g clip-path="url(#clip0_1_2650)">
<path d="M13.125 1.875C13.47 1.875 13.75 2.155 13.75 2.5V11.25C13.75 11.595 13.47 11.875 13.125 11.875H4.03437L1.25 14.0625V2.5C1.25 2.155 1.53 1.875 1.875 1.875H13.125ZM12.5 3.125H2.5V11.4906L3.60188 10.625H12.5V3.125ZM6.57188 4.6325L6.85125 5.0625C5.80875 5.62688 5.82687 6.5325 5.82687 6.7275C5.92375 6.715 6.02563 6.7125 6.12688 6.72188C6.69063 6.77437 7.135 7.2375 7.135 7.8125C7.135 8.41625 6.645 8.90625 6.04125 8.90625C5.70563 8.90625 5.385 8.75312 5.1825 8.5375C4.86062 8.19625 4.6875 7.8125 4.6875 7.19063C4.6875 6.09688 5.455 5.11688 6.57188 4.6325ZM9.69688 4.6325L9.97625 5.0625C8.93375 5.62688 8.95187 6.5325 8.95187 6.7275C9.04875 6.715 9.15063 6.7125 9.25187 6.72188C9.81563 6.77437 10.26 7.2375 10.26 7.8125C10.26 8.41625 9.77 8.90625 9.16625 8.90625C8.83063 8.90625 8.51 8.75312 8.3075 8.5375C7.98562 8.19625 7.8125 7.8125 7.8125 7.19063C7.8125 6.09688 8.58 5.11688 9.69688 4.6325Z" fill="white"/>
</g>
<defs>
<clipPath id="clip0_1_2650">
<rect width="15" height="15" fill="white"/>
</clipPath>
</defs>
</svg>
