<svg width="15" height="15" viewBox="0 0 15 15" fill="none" xmlns="http://www.w3.org/2000/svg">
<g clip-path="url(#clip0_1_1556)">
<path d="M3.125 1.25H11.875C12.0408 1.25 12.1997 1.31585 12.3169 1.43306C12.4342 1.55027 12.5 1.70924 12.5 1.875V13.8394C12.5001 13.8953 12.4852 13.9501 12.4568 13.9983C12.4285 14.0464 12.3877 14.0861 12.3388 14.1132C12.29 14.1402 12.2347 14.1537 12.1788 14.1521C12.123 14.1506 12.0686 14.1341 12.0212 14.1044L7.5 11.2688L2.97875 14.1038C2.93148 14.1334 2.87712 14.1499 2.82131 14.1515C2.76551 14.1531 2.7103 14.1397 2.66143 14.1127C2.61256 14.0857 2.57182 14.0461 2.54343 13.9981C2.51504 13.95 2.50004 13.8952 2.5 13.8394V1.875C2.5 1.70924 2.56585 1.55027 2.68306 1.43306C2.80027 1.31585 2.95924 1.25 3.125 1.25Z" fill="#A6A6A6"/>
</g>
<defs>
<clipPath id="clip0_1_1556">
<rect width="15" height="15" fill="white"/>
</clipPath>
</defs>
</svg>
