<svg width="853" height="312" viewBox="0 0 853 312" fill="none" xmlns="http://www.w3.org/2000/svg">
<path d="M-125.399 192.614C-30.1629 89.4659 104.332 -23.86 234.036 4.10797C302.973 18.99 312.595 61.2841 397.782 87.1566C530.48 127.526 728.864 92.2884 801.136 -44.6435C843.815 -125.468 827.394 -213.05 814.736 -257.91" stroke="#4D04FF" stroke-opacity="0.5" stroke-width="0.5" stroke-miterlimit="10"/>
<path d="M-125.483 194.113C-29.135 90.4086 105.06 -21.5917 233.952 6.33357C302.889 21.3439 312.639 63.8518 397.569 89.425C452.778 105.847 518.294 108.156 582.526 97.0799C614.001 91.6488 644.449 83.5663 673.016 70.9508C727.455 46.8743 773.384 8.51458 801.437 -45.0693C843.86 -125.638 828.122 -213.048 816.576 -258.336" stroke="#4D04FF" stroke-opacity="0.5" stroke-width="0.5" stroke-miterlimit="10"/>
<path d="M-125.525 195.562C-28.0651 91.3023 105.788 -19.415 233.953 8.51021C302.932 23.6488 312.683 66.7127 397.442 91.6444C453.036 108.023 518.081 108.665 582.954 97.4604C614.899 91.9438 645.177 84.631 673.957 71.93C728.439 47.8536 773.513 8.76678 801.909 -45.5869C843.903 -125.941 829.064 -213.138 818.63 -258.811" stroke="#4D04FF" stroke-opacity="0.5" stroke-width="0.5" stroke-miterlimit="10"/>
<path d="M-125.611 197.016C-27.0391 92.2004 106.514 -17.1912 233.867 10.6913C302.846 26.001 312.682 69.3642 397.228 93.8683C453.206 110.076 517.823 109.178 583.253 97.8881C615.626 92.286 645.818 85.743 674.769 72.9564C729.294 48.88 773.555 9.06625 802.207 -46.0144C843.86 -126.155 829.791 -213.138 820.511 -259.238" stroke="#4D04FF" stroke-opacity="0.5" stroke-width="0.5" stroke-miterlimit="10"/>
<path d="M-125.654 198.514C-25.9702 93.1853 107.284 -14.9234 233.867 12.8736C302.846 28.3116 312.725 72.0597 397.056 96.0505C453.42 112.087 517.567 109.65 583.595 98.2316C616.396 92.5439 646.502 86.7279 675.624 73.8985C730.192 49.8221 773.683 9.28136 802.592 -46.5691C843.903 -126.453 830.603 -213.265 822.478 -259.793" stroke="#4D04FF" stroke-opacity="0.5" stroke-width="0.5" stroke-miterlimit="10"/>
<path d="M-125.74 199.96C-24.9443 94.0752 108.053 -13.0498 233.781 15.0464C302.846 30.4844 312.767 74.7457 396.885 98.2662C453.633 114.175 517.352 110.112 583.937 98.6083C617.165 92.8351 647.186 87.7889 676.479 74.874C731.047 50.7548 773.768 9.57258 802.934 -47.0476C843.902 -126.675 831.372 -213.316 824.402 -260.271" stroke="#4D04FF" stroke-opacity="0.5" stroke-width="0.5" stroke-miterlimit="10"/>
<path d="M-125.826 201.418C-23.9183 94.9771 108.78 -10.865 233.738 17.274C302.845 32.8403 312.809 77.4437 396.713 100.537C453.89 116.274 517.096 110.672 584.321 99.0398C617.977 93.181 647.912 88.9046 677.377 75.9042C731.987 51.785 773.939 9.87577 803.318 -47.5142C843.987 -126.885 832.185 -213.355 826.369 -260.695" stroke="#4D04FF" stroke-opacity="0.5" stroke-width="0.5" stroke-miterlimit="10"/>
<path d="M-125.868 202.918C-22.8912 95.9214 109.508 -8.68066 233.696 19.4584C302.846 35.1102 312.896 80.0985 396.543 102.721C454.104 118.287 516.883 111.146 584.664 99.3853C618.748 93.441 648.597 89.8915 678.233 76.8484C732.886 52.7292 774.068 10.1357 803.704 -48.024C844.031 -127.138 833.041 -213.437 828.337 -261.205" stroke="#4D04FF" stroke-opacity="0.5" stroke-width="0.5" stroke-miterlimit="10"/>
<path d="M-125.952 204.371C-21.8633 96.8187 110.236 -6.50039 233.655 21.6387C302.805 37.4188 312.897 82.7492 396.331 104.944C454.319 120.339 516.627 111.658 584.965 99.7694C619.476 93.7824 649.24 90.9599 679.047 77.7885C733.743 53.6693 774.112 10.3489 804.005 -48.5806C844.032 -127.481 833.769 -213.566 830.219 -261.762" stroke="#4D04FF" stroke-opacity="0.5" stroke-width="0.5" stroke-miterlimit="10"/>
<path d="M-126.038 205.819C-20.7946 97.7106 111.006 -4.32554 233.569 23.8135C302.762 39.7219 312.982 85.4371 396.159 107.162C454.533 122.386 516.37 112.165 585.307 100.148C620.245 94.0756 649.881 92.0229 679.902 78.7659C734.64 54.604 774.24 10.5993 804.347 -49.0572C844.032 -127.701 834.538 -213.615 832.144 -262.238" stroke="#4D04FF" stroke-opacity="0.5" stroke-width="0.5" stroke-miterlimit="10"/>
<path d="M-126.081 207.323C-19.7685 98.6588 111.732 -2.13717 233.526 26.0019C302.719 41.9958 312.982 88.096 395.988 109.35C454.747 124.403 516.156 112.643 585.691 100.54C621.058 94.3823 650.608 93.0994 680.842 79.7569C735.624 55.5949 774.411 10.906 804.817 -49.563C844.203 -127.95 835.436 -213.693 834.153 -262.744" stroke="#4D04FF" stroke-opacity="0.5" stroke-width="0.5" stroke-miterlimit="10"/>
<path d="M-126.165 208.779C-18.7406 99.5587 112.461 0.00290338 233.484 28.1847C302.72 44.3069 313.069 90.7492 395.819 111.576C455.005 126.5 515.901 113.158 586.035 100.927C621.872 94.6835 651.294 94.1276 681.699 80.7423C736.481 56.5803 774.541 11.1644 805.16 -50.0316C844.247 -128.162 836.207 -213.734 836.079 -263.17" stroke="#4D04FF" stroke-opacity="0.5" stroke-width="0.5" stroke-miterlimit="10"/>
<path d="M-126.209 210.272C-17.6726 100.495 113.23 2.22243 233.441 30.4042C302.719 46.6548 313.111 93.4391 395.646 113.838C455.217 128.592 515.686 113.667 586.376 101.351C622.641 95.0214 651.977 95.2353 682.554 81.7644C737.378 57.6025 774.668 11.5023 805.544 -50.5062C844.332 -128.38 837.062 -213.781 838.045 -263.645" stroke="#4D04FF" stroke-opacity="0.5" stroke-width="0.5" stroke-miterlimit="10"/>
<path d="M-126.295 211.725C-16.6467 101.393 113.956 4.36014 233.397 32.5847C302.676 48.9635 313.196 96.0472 395.475 116.018C455.473 130.601 515.429 114.137 586.718 101.692C623.41 95.2775 652.66 96.2611 683.408 82.7047C738.275 58.5428 774.753 11.7156 805.886 -51.0199C844.374 -128.595 837.831 -213.867 839.969 -264.158" stroke="#4D04FF" stroke-opacity="0.5" stroke-width="0.5" stroke-miterlimit="10"/>
<path d="M-126.384 213.175C-15.6237 102.286 114.68 6.53674 233.309 34.7613C302.673 51.2256 313.235 98.6943 395.301 118.238C455.727 132.649 515.212 114.645 587.099 102.073C624.219 95.5725 653.384 97.283 684.303 83.6839C739.213 59.4792 774.921 12.0106 806.267 -51.5375C844.456 -128.856 838.64 -213.957 841.933 -264.676" stroke="#4D04FF" stroke-opacity="0.5" stroke-width="0.5" stroke-miterlimit="10"/>
<path d="M-126.426 214.678C-14.5538 103.233 115.407 8.76649 233.309 36.9911C302.673 53.5837 313.322 101.352 395.13 120.51C455.941 134.751 514.956 115.207 587.442 102.506C624.989 95.9206 654.026 98.4009 685.159 84.7163C740.111 60.5115 775.05 12.316 806.653 -51.9591C844.542 -129.021 839.453 -213.951 843.901 -265.055" stroke="#4D04FF" stroke-opacity="0.5" stroke-width="0.5" stroke-miterlimit="10"/>
<path d="M-126.51 216.129C-13.5259 104.129 116.136 10.9448 233.225 39.1266C302.589 55.8475 313.323 103.958 394.918 122.688C456.157 136.715 514.701 115.675 587.743 102.846C625.718 96.1745 654.67 99.4246 685.973 85.6544C740.968 61.4497 775.137 12.5699 806.954 -52.5177C844.544 -129.323 840.182 -214.082 845.784 -265.613" stroke="#4D04FF" stroke-opacity="0.5" stroke-width="0.5" stroke-miterlimit="10"/>
<path d="M-126.553 217.585C-12.4998 105.071 116.906 13.1277 233.182 41.3523C302.589 58.2015 313.409 106.611 394.747 124.914C456.37 138.77 514.444 116.19 588.085 103.275C626.487 96.5185 655.353 100.538 686.828 86.6826C741.866 62.4779 775.222 12.8711 807.296 -52.9435C844.586 -129.492 840.994 -214.08 847.708 -266.039" stroke="#4D04FF" stroke-opacity="0.5" stroke-width="0.5" stroke-miterlimit="10"/>
<path d="M-126.639 219.083C-11.4311 105.971 117.632 15.3101 233.139 43.5347C302.589 60.5122 313.451 109.264 394.575 127.139C456.626 140.824 514.23 116.662 588.427 103.662C627.257 96.8193 656.037 101.566 687.683 87.6676C742.721 63.4202 775.35 13.1719 807.68 -53.4552C844.672 -129.704 841.806 -214.164 849.675 -266.551" stroke="#4D04FF" stroke-opacity="0.5" stroke-width="0.5" stroke-miterlimit="10"/>
<path d="M-126.725 220.537C-10.4051 106.911 118.359 17.4908 233.096 45.7154C302.546 62.7784 313.536 111.872 394.404 129.363C456.883 142.876 514.016 117.175 588.811 104.046C628.069 97.1183 656.764 102.635 688.581 88.6509C743.661 64.4035 775.521 13.4282 808.065 -53.9259C844.757 -129.961 842.619 -214.25 851.599 -267.021" stroke="#4D04FF" stroke-opacity="0.5" stroke-width="0.5" stroke-miterlimit="10"/>
<path d="M-126.768 221.982C-9.37898 107.801 119.128 19.6635 233.053 47.8881C302.545 65.0794 313.621 114.472 394.233 131.535C457.096 144.878 513.759 117.637 589.153 104.38C628.881 97.3666 657.448 103.653 689.436 89.5835C744.56 65.336 775.649 13.6765 808.45 -54.4902C844.885 -130.226 843.431 -214.344 853.566 -267.543" stroke="#4D04FF" stroke-opacity="0.5" stroke-width="0.5" stroke-miterlimit="10"/>
<path d="M-126.851 223.491C-8.35011 108.753 119.858 21.8986 233.013 50.0805C302.505 67.4428 313.667 117.092 394.064 133.771C457.355 146.899 513.548 118.162 589.498 104.776C629.654 97.6774 658.135 104.691 690.294 90.5785C745.46 66.331 775.78 13.9872 808.794 -54.9492C844.93 -130.386 844.203 -214.375 855.493 -268.002" stroke="#4D04FF" stroke-opacity="0.5" stroke-width="0.5" stroke-miterlimit="10"/>
<path d="M-126.937 224.944C-7.28142 109.651 120.584 24.0792 232.927 52.3037C302.505 69.7517 313.752 119.701 393.85 135.994C457.569 148.952 513.248 118.674 589.797 105.161C630.38 97.9763 658.733 105.759 691.106 91.5616C746.315 67.2713 775.865 14.2433 809.093 -55.4628C844.93 -130.643 844.973 -214.461 857.374 -268.516" stroke="#4D04FF" stroke-opacity="0.5" stroke-width="0.5" stroke-miterlimit="10"/>
<path d="M-126.981 226.394C-6.25724 110.545 121.309 26.2559 232.882 54.4805C302.46 72.0567 313.792 122.348 393.676 138.213C457.823 150.957 513.032 119.183 590.179 105.541C631.191 98.2714 659.458 106.824 692.002 92.5409C747.253 68.2507 776.034 14.5385 809.518 -55.9374C845.099 -130.861 845.826 -214.508 859.382 -268.99" stroke="#4D04FF" stroke-opacity="0.5" stroke-width="0.5" stroke-miterlimit="10"/>
<path d="M-127.066 227.888C-5.23032 111.483 122.037 28.4774 232.84 56.6592C302.418 74.3637 313.878 124.954 393.506 140.435C458.038 153.008 512.776 119.694 590.522 105.924C631.961 98.5685 660.143 107.848 692.9 93.5223C748.152 69.232 776.206 14.8356 809.904 -56.4529C845.185 -131.077 846.639 -214.553 861.35 -269.463" stroke="#4D04FF" stroke-opacity="0.5" stroke-width="0.5" stroke-miterlimit="10"/>
<path d="M-127.107 229.348C-4.15945 112.387 122.766 30.6638 232.799 58.8456C302.419 76.6784 313.966 127.525 393.337 142.664C458.296 155.023 512.564 120.17 590.866 106.357C632.732 98.916 660.829 108.966 693.757 94.5112C749.052 70.221 776.336 15.0975 810.248 -56.9179C845.272 -131.285 847.41 -214.591 863.276 -269.928" stroke="#4D04FF" stroke-opacity="0.5" stroke-width="0.5" stroke-miterlimit="10"/>
<path d="M-127.193 230.844C-3.13351 113.327 123.492 32.8873 232.756 61.0691C302.419 79.0302 314.051 130.177 393.165 144.888C458.552 157.075 512.307 120.683 591.208 106.742C633.502 99.215 661.513 110.034 694.612 95.4945C749.95 71.1615 776.464 15.3966 810.632 -57.4314C845.4 -131.5 848.222 -214.676 865.243 -270.441" stroke="#4D04FF" stroke-opacity="0.5" stroke-width="0.5" stroke-miterlimit="10"/>
<path d="M-127.278 232.294C-2.1066 114.221 124.263 35.0641 232.713 63.2459C302.377 81.3353 314.094 132.738 392.995 147.107C458.809 159.081 512.094 121.192 591.593 107.122C634.315 99.5102 662.24 111.099 695.511 96.4739C750.891 72.1409 776.635 15.6917 811.018 -57.906C845.486 -131.718 849.078 -214.723 867.21 -270.916" stroke="#4D04FF" stroke-opacity="0.5" stroke-width="0.5" stroke-miterlimit="10"/>
<path d="M-127.322 233.75C-1.03867 115.121 124.988 37.2895 232.669 65.3858C302.333 83.6035 314.179 135.349 392.78 149.333C459.022 161.093 511.836 121.707 591.891 107.509C635.083 99.8112 662.838 112.127 696.322 97.4592C751.745 73.1262 776.72 15.9928 811.316 -58.4175C845.528 -131.93 849.804 -214.807 869.091 -271.385" stroke="#4D04FF" stroke-opacity="0.5" stroke-width="0.5" stroke-miterlimit="10"/>
<path d="M-127.409 235.248C-0.0136931 116.106 125.714 39.5149 232.582 67.6112C302.289 85.9571 314.22 137.916 392.607 151.558C459.277 163.147 511.578 122.221 592.232 107.895C635.852 100.112 663.52 113.198 697.176 98.4444C752.642 74.1114 776.846 16.251 811.7 -58.8862C845.655 -132.142 850.615 -214.848 871.014 -271.854" stroke="#4D04FF" stroke-opacity="0.5" stroke-width="0.5" stroke-miterlimit="10"/>
<path d="M-127.45 236.701C1.01438 117.004 126.443 41.6952 232.541 69.7915C302.29 88.2658 314.307 140.524 392.438 153.738C459.493 165.114 511.366 122.691 592.576 108.237C636.623 100.368 664.206 114.224 698.033 99.3846C753.541 75.0088 777.019 16.5069 812.043 -59.4429C845.699 -132.399 851.386 -214.977 872.94 -272.41" stroke="#4D04FF" stroke-opacity="0.5" stroke-width="0.5" stroke-miterlimit="10"/>
<path d="M-127.537 238.155C2.08216 117.901 127.168 43.9186 232.497 71.9721C302.289 90.5747 314.391 143.09 392.266 155.962C459.748 167.123 511.108 123.204 592.96 108.621C637.435 100.71 664.932 115.25 698.93 100.368C754.438 75.992 777.189 16.8059 812.47 -59.9136C845.869 -132.613 852.284 -215.02 874.949 -272.881" stroke="#4D04FF" stroke-opacity="0.5" stroke-width="0.5" stroke-miterlimit="10"/>
<path d="M-127.623 239.656C3.10806 118.846 127.895 46.1462 232.454 74.1997C302.246 92.8878 314.476 145.659 392.094 158.189C460.004 169.137 510.894 123.678 593.301 109.053C638.204 101.056 665.616 116.366 699.785 101.398C755.336 77.0222 777.317 17.1519 812.811 -60.3802C845.954 -132.781 853.053 -215.059 876.873 -273.305" stroke="#4D04FF" stroke-opacity="0.5" stroke-width="0.5" stroke-miterlimit="10"/>
<path d="M-127.662 241.107C4.13811 119.742 128.668 48.325 232.415 76.3785C302.249 95.2376 314.566 148.266 391.927 160.411C460.264 171.145 510.641 124.189 593.647 109.435C638.977 101.353 666.304 117.432 700.644 102.379C756.238 78.0035 777.491 17.4062 813.157 -60.8528C846.043 -132.954 853.826 -215.104 878.801 -273.777" stroke="#4D04FF" stroke-opacity="0.5" stroke-width="0.5" stroke-miterlimit="10"/>
<path d="M-127.75 242.559C5.16209 120.637 129.35 50.5463 232.37 78.557C302.204 97.5445 314.649 150.829 391.753 162.632C460.519 173.152 510.425 124.7 593.987 109.818C639.745 101.65 666.986 118.499 701.497 103.36C757.133 78.9847 777.617 17.7031 813.54 -61.3685C846.169 -133.213 854.636 -215.192 880.765 -274.293" stroke="#4D04FF" stroke-opacity="0.5" stroke-width="0.5" stroke-miterlimit="10"/>
<path d="M-127.833 244.057C6.23373 121.58 130.123 52.7716 232.287 80.7396C302.164 99.8553 314.737 153.397 391.542 164.857C460.735 175.164 510.128 125.215 594.289 110.204C640.474 101.951 667.587 119.527 702.312 104.346C757.991 79.9271 777.705 18.0041 813.841 -61.8372C846.257 -133.425 855.451 -215.276 882.692 -274.762" stroke="#4D04FF" stroke-opacity="0.5" stroke-width="0.5" stroke-miterlimit="10"/>
<path d="M-127.88 245.513C7.25597 122.479 130.845 54.9971 232.24 82.9224C302.16 102.166 314.776 155.964 391.367 167.04C460.987 177.133 509.91 125.687 594.669 110.548C641.283 102.209 668.31 120.555 703.206 105.288C758.928 80.8697 777.915 18.2624 814.222 -62.3487C846.338 -133.594 856.217 -215.317 884.613 -275.273" stroke="#4D04FF" stroke-opacity="0.5" stroke-width="0.5" stroke-miterlimit="10"/>
<path d="M-127.965 246.959C8.28291 123.412 131.573 57.2126 232.198 85.095C302.118 104.51 314.862 158.479 391.196 169.256C461.245 179.134 509.697 126.192 595.012 110.925C642.096 102.5 668.995 121.616 704.104 106.263C759.827 81.8449 778.087 18.5534 814.651 -62.8702C846.51 -133.859 857.073 -215.411 886.623 -275.752" stroke="#4D04FF" stroke-opacity="0.5" stroke-width="0.5" stroke-miterlimit="10"/>
<path d="M-128.006 248.459C9.35375 124.314 132.302 59.4399 232.157 87.3224C302.12 106.823 314.949 161.091 391.027 171.483C461.503 181.148 509.442 126.708 595.356 111.313C642.867 102.803 669.681 122.646 704.961 107.251C760.726 82.8321 778.26 18.8564 814.994 -63.337C846.597 -134.027 857.844 -215.45 888.507 -276.219" stroke="#4D04FF" stroke-opacity="0.5" stroke-width="0.5" stroke-miterlimit="10"/>
<path d="M-128.093 249.911C10.3787 125.209 133.027 61.6612 232.113 89.5009C302.076 109.173 315.033 163.655 390.855 173.704C461.758 183.112 509.227 127.176 595.697 111.696C643.636 103.1 670.363 123.712 705.815 108.232C761.623 83.7704 778.387 19.1533 815.378 -63.8526C846.724 -134.243 858.656 -215.538 890.472 -276.734" stroke="#4D04FF" stroke-opacity="0.5" stroke-width="0.5" stroke-miterlimit="10"/>
<path d="M-128.177 251.419C11.4066 126.162 133.756 63.8966 232.071 91.6935C302.077 111.493 315.12 166.189 390.685 175.94C462.016 185.134 508.972 127.701 596.083 112.135C644.45 103.454 671.092 124.836 706.715 109.27C762.565 84.8084 778.602 19.507 815.764 -64.2687C846.854 -134.402 859.47 -215.527 892.441 -277.15" stroke="#4D04FF" stroke-opacity="0.5" stroke-width="0.5" stroke-miterlimit="10"/>
<path d="M-128.219 252.865C12.4765 127.052 134.484 66.1122 232.029 93.8663C302.035 113.795 315.206 168.747 390.515 178.155C462.274 187.093 508.759 128.206 596.426 112.512C645.22 103.745 671.734 125.897 707.571 110.245C763.464 85.7838 778.731 19.7982 816.107 -64.79C846.983 -134.624 860.283 -215.62 894.366 -277.629" stroke="#4D04FF" stroke-opacity="0.5" stroke-width="0.5" stroke-miterlimit="10"/>
<path d="M-128.31 254.32C13.4976 127.994 135.205 68.3376 231.939 96.049C301.987 116.148 315.244 171.272 390.296 180.381C462.482 189.105 508.454 128.721 596.72 112.898C645.942 104.046 672.37 126.925 708.378 111.23C764.314 86.7691 778.854 20.0993 816.444 -65.2587C847.063 -134.794 861.047 -215.661 896.285 -278.098" stroke="#4D04FF" stroke-opacity="0.5" stroke-width="0.5" stroke-miterlimit="10"/>
<path d="M-128.349 255.817C14.5704 128.934 135.936 70.5608 231.942 98.2722C301.991 118.5 315.419 173.88 390.171 182.604C462.785 191.071 508.287 129.234 597.109 113.283C646.758 104.345 673.101 127.994 709.28 112.171C765.259 87.6666 779.071 20.3552 816.833 -65.8153C847.195 -135.051 861.864 -215.79 898.256 -278.654" stroke="#4D04FF" stroke-opacity="0.5" stroke-width="0.5" stroke-miterlimit="10"/>
<path d="M-128.433 257.276C15.5982 129.838 136.665 72.79 231.858 100.459C301.949 120.815 315.463 176.408 389.959 184.833C463.001 193.087 507.989 129.752 597.452 113.673C647.529 104.65 673.787 129.068 710.137 113.16C766.115 88.6556 779.201 20.6601 817.176 -66.2802C847.282 -135.217 862.635 -215.828 900.182 -279.119" stroke="#4D04FF" stroke-opacity="0.5" stroke-width="0.5" stroke-miterlimit="10"/>
<path d="M-128.516 258.72C16.6271 130.726 137.394 75.0037 231.818 102.63C301.952 123.157 315.551 178.921 389.79 187.047C463.26 195.044 507.778 130.255 597.797 114.048C648.302 104.939 674.474 130.084 710.995 114.133C767.016 89.6292 779.375 20.9493 817.564 -66.8034C847.456 -135.483 863.45 -215.923 902.152 -279.6" stroke="#4D04FF" stroke-opacity="0.5" stroke-width="0.5" stroke-miterlimit="10"/>
<path d="M-128.562 260.222C17.6503 131.672 138.118 77.2328 231.772 104.816C301.906 125.471 315.633 181.493 389.616 189.233C463.513 196.973 507.518 130.688 598.136 114.395C649.111 105.201 675.155 131.116 711.847 115.079C767.911 90.5754 779.543 21.2113 817.903 -67.3112C847.538 -135.692 864.259 -216.003 904.073 -280.107" stroke="#4D04FF" stroke-opacity="0.5" stroke-width="0.5" stroke-miterlimit="10"/>
<path d="M-128.65 261.674C18.6734 132.568 138.842 79.4544 231.726 106.995C301.903 127.778 315.716 184.014 389.442 191.455C463.766 198.981 507.301 131.199 598.475 114.821C649.878 105.541 675.836 132.226 712.699 116.104C768.806 91.5567 779.711 21.5512 818.284 -67.7839C847.663 -135.865 865.069 -216.048 906.037 -280.58" stroke="#4D04FF" stroke-opacity="0.5" stroke-width="0.5" stroke-miterlimit="10"/>
<path d="M-128.69 263.124C19.7452 133.462 139.571 81.7167 231.643 109.172C301.82 130.126 315.761 186.533 389.231 193.674C463.983 200.944 507.047 131.708 598.82 115.201C650.65 105.836 676.48 133.248 713.557 117.083C769.707 92.5361 779.884 21.8464 818.629 -68.2585C847.795 -136.04 865.841 -216.095 907.921 -281.055" stroke="#4D04FF" stroke-opacity="0.5" stroke-width="0.5" stroke-miterlimit="10"/>
<path d="M-128.775 264.62C20.7721 134.402 140.299 83.9399 231.601 111.395C301.82 132.478 315.847 189.098 389.06 195.897C464.24 202.911 506.791 132.221 599.162 115.586C651.42 106.135 677.165 134.316 714.412 118.066C770.605 93.5191 780.056 22.1452 818.972 -68.7722C847.88 -136.255 866.611 -216.181 909.846 -281.568" stroke="#4D04FF" stroke-opacity="0.5" stroke-width="0.5" stroke-miterlimit="10"/>
<path d="M-128.863 266.084C21.7961 135.31 141.024 86.1733 231.556 113.585C301.775 134.839 315.93 191.631 388.887 198.131C464.494 204.888 506.575 132.744 599.502 115.98C652.188 106.444 677.846 135.395 715.265 119.059C771.458 94.5124 780.225 22.4542 819.354 -69.2329C848.006 -136.459 867.421 -216.215 911.811 -281.986" stroke="#4D04FF" stroke-opacity="0.5" stroke-width="0.5" stroke-miterlimit="10"/>
<path d="M-128.902 267.537C22.8689 136.25 141.754 88.4394 231.517 115.766C301.779 137.148 316.02 194.153 388.719 200.354C464.755 206.854 506.322 133.257 599.848 116.365C652.961 106.743 678.534 136.464 716.167 120.042C772.402 95.4955 780.442 22.7531 819.743 -69.7465C848.181 -136.673 868.28 -216.301 913.782 -282.5" stroke="#4D04FF" stroke-opacity="0.5" stroke-width="0.5" stroke-miterlimit="10"/>
<path d="M-128.988 269.031C23.8949 137.146 142.481 90.6606 231.474 117.944C301.736 139.498 316.148 196.674 388.548 202.533C465.011 208.733 506.108 133.725 600.232 116.704C653.773 106.997 679.261 137.445 717.065 120.981C773.343 96.3911 780.656 23.0072 820.127 -70.2622C848.309 -136.889 869.093 -216.389 915.749 -283.016" stroke="#4D04FF" stroke-opacity="0.5" stroke-width="0.5" stroke-miterlimit="10"/>
<path d="M-129.077 270.479C24.9178 138.08 143.204 92.9209 231.428 120.119C301.69 141.801 316.23 199.191 388.373 204.75C465.264 210.694 505.847 134.189 600.571 117.083C654.54 107.29 679.942 138.508 717.917 121.958C774.237 97.3684 780.823 23.343 820.509 -70.7817C848.477 -137.109 869.902 -216.48 917.712 -283.535" stroke="#4D04FF" stroke-opacity="0.5" stroke-width="0.5" stroke-miterlimit="10"/>
<path d="M-129.119 271.982C25.9877 138.984 143.932 95.1505 231.386 122.349C301.69 144.201 316.316 201.72 388.203 207.022C465.521 212.71 505.634 134.75 600.914 117.516C655.353 107.638 680.627 139.626 718.773 122.99C775.136 98.4006 780.995 23.691 820.852 -71.2034C848.563 -137.232 870.672 -216.474 919.638 -283.914" stroke="#4D04FF" stroke-opacity="0.5" stroke-width="0.5" stroke-miterlimit="10"/>
<path d="M-129.202 273.437C27.0166 139.926 144.619 97.4185 231.303 124.531C301.607 146.555 316.361 204.244 387.992 209.205C465.738 214.593 505.338 135.222 601.216 117.903C656.082 107.981 681.228 140.653 719.588 123.975C775.994 99.3857 781.169 23.9918 821.196 -71.7151C848.694 -137.444 871.445 -216.516 921.565 -284.426" stroke="#4D04FF" stroke-opacity="0.5" stroke-width="0.5" stroke-miterlimit="10"/>
<path d="M-129.247 274.887C28.0408 140.82 145.344 99.6381 231.258 126.708C301.605 148.86 316.445 206.763 387.819 211.424C465.992 216.556 505.122 135.731 601.556 118.283C656.85 108.276 681.91 141.718 720.441 124.955C776.89 100.322 781.338 24.287 821.536 -72.1897C848.777 -137.619 872.255 -216.563 923.487 -284.9" stroke="#4D04FF" stroke-opacity="0.5" stroke-width="0.5" stroke-miterlimit="10"/>
<path d="M-129.332 276.391C29.1105 141.769 146.071 101.912 231.216 128.939C301.563 151.262 316.531 209.294 387.648 213.699C466.249 218.531 504.908 136.295 601.941 118.719C657.663 108.626 682.638 142.838 721.34 125.989C777.789 101.356 781.552 24.6367 821.922 -72.6526C848.949 -137.783 873.068 -216.598 925.412 -285.363" stroke="#4D04FF" stroke-opacity="0.5" stroke-width="0.5" stroke-miterlimit="10"/>
<path d="M-129.415 277.841C30.1394 142.663 146.801 104.132 231.175 131.074C301.566 153.568 316.619 211.77 387.48 215.876C466.508 220.451 504.654 136.761 602.286 119.057C658.436 108.879 683.325 143.86 722.198 126.925C778.689 102.293 781.768 24.932 822.309 -73.1698C849.123 -138.044 873.883 -216.687 927.382 -285.838" stroke="#4D04FF" stroke-opacity="0.5" stroke-width="0.5" stroke-miterlimit="10"/>
<path d="M-129.46 279.293C31.1635 143.558 147.526 106.396 231.13 133.295C301.521 155.917 316.702 214.291 387.306 218.097C466.763 222.373 504.438 137.272 602.626 119.439C659.203 109.175 684.007 144.884 723.051 127.906C779.585 103.274 781.937 25.2287 822.649 -73.6856C849.206 -138.26 874.651 -216.776 929.304 -286.354" stroke="#4D04FF" stroke-opacity="0.5" stroke-width="0.5" stroke-miterlimit="10"/>
<path d="M-129.546 280.791C32.2323 144.5 148.252 108.664 231.087 135.477C301.478 158.27 316.787 216.815 387.135 220.322C467.019 224.299 504.181 137.744 602.967 119.825C659.973 109.476 684.69 145.954 723.906 128.848C780.483 104.173 782.151 25.4867 822.991 -74.1974C849.334 -138.472 875.42 -216.86 931.228 -286.865" stroke="#4D04FF" stroke-opacity="0.5" stroke-width="0.5" stroke-miterlimit="10"/>
<path d="M-129.589 282.24C33.2584 145.394 148.979 110.883 231.001 137.654C301.435 160.618 316.83 219.291 386.921 222.541C467.233 226.262 503.925 138.252 603.309 120.206C660.742 109.771 685.332 147.019 724.761 129.828C781.381 105.153 782.321 25.8245 823.375 -74.7149C849.505 -138.691 876.275 -216.95 933.195 -287.383" stroke="#4D04FF" stroke-opacity="0.5" stroke-width="0.5" stroke-miterlimit="10"/>
<path d="M-129.674 283.696C34.2853 146.294 149.707 113.151 230.959 139.836C301.392 162.972 316.916 221.816 386.75 224.724C467.49 228.145 503.669 138.724 603.652 120.592C661.512 110.072 686.016 148.047 725.616 130.813C782.279 106.138 782.536 26.1255 823.718 -75.1836C849.591 -138.86 877.046 -216.991 935.12 -287.852" stroke="#4D04FF" stroke-opacity="0.5" stroke-width="0.5" stroke-miterlimit="10"/>
<path d="M-129.759 285.195C35.3122 147.237 150.391 115.42 230.917 142.062C301.35 165.369 317.002 224.341 386.58 226.992C467.747 230.114 503.455 139.282 603.995 121.022C662.325 110.416 686.701 149.161 726.472 131.841C783.178 107.123 782.75 26.4695 824.104 -75.6522C849.762 -139.029 877.858 -217.032 937.087 -288.277" stroke="#4D04FF" stroke-opacity="0.5" stroke-width="0.5" stroke-miterlimit="10"/>
<path d="M-129.803 286.65C36.3802 148.136 151.117 117.688 230.873 144.245C301.349 167.722 317.086 226.823 386.408 229.218C468.002 231.997 503.198 139.797 604.336 121.408C663.094 110.717 687.384 150.232 727.369 132.826C784.075 108.109 782.963 26.8132 824.487 -76.121C849.932 -139.199 878.67 -217.073 939.054 -288.746" stroke="#4D04FF" stroke-opacity="0.5" stroke-width="0.5" stroke-miterlimit="10"/>
<path d="M-129.887 288.1C37.408 149.029 151.846 119.907 230.832 146.378C301.308 170.027 317.173 229.256 386.238 231.351C468.26 233.831 502.985 140.22 604.722 121.703C663.908 110.926 688.113 151.21 728.269 133.72C785.017 109.002 783.221 27.0223 824.874 -76.7245C850.105 -139.503 879.527 -217.249 941.022 -289.35" stroke="#4D04FF" stroke-opacity="0.5" stroke-width="0.5" stroke-miterlimit="10"/>
<path d="M-129.977 289.602C38.4301 149.976 152.569 122.179 230.785 148.607C301.261 172.427 317.255 231.827 386.063 233.623C468.513 235.804 502.767 140.782 605.06 122.136C664.674 111.274 688.793 152.285 729.12 134.752C785.911 110.034 783.431 27.4129 825.254 -77.1464C850.229 -139.625 880.335 -217.243 942.942 -289.771" stroke="#4D04FF" stroke-opacity="0.5" stroke-width="0.5" stroke-miterlimit="10"/>
<path d="M-130.016 291.052C39.5029 150.913 153.256 124.441 230.746 150.784C301.222 174.775 317.344 234.303 385.895 235.843C468.773 237.725 502.514 141.248 605.406 122.517C665.447 111.569 689.481 153.35 729.979 135.731C786.813 111.013 783.648 27.708 825.6 -77.6637C850.361 -139.843 881.108 -217.333 944.87 -290.246" stroke="#4D04FF" stroke-opacity="0.5" stroke-width="0.5" stroke-miterlimit="10"/>
<path d="M-130.101 292.548C40.5298 151.853 153.984 126.75 230.661 153.008C301.179 177.17 317.387 236.826 385.682 238.066C468.987 239.606 502.258 141.761 605.706 122.902C666.175 111.868 690.08 154.419 730.792 136.714C787.669 111.997 783.82 28.0498 825.9 -78.1344C850.447 -140.015 881.836 -217.376 946.753 -290.717" stroke="#4D04FF" stroke-opacity="0.5" stroke-width="0.5" stroke-miterlimit="10"/>
<path d="M-130.14 294.004C41.6026 152.753 154.715 128.976 230.664 155.191C301.183 179.524 317.519 241.318 385.558 240.292C469.29 239.009 502.048 142.276 606.137 123.331C667.033 112.212 690.853 155.49 731.736 137.743C788.656 112.982 784.123 28.3937 826.374 -78.6031C850.707 -140.184 882.738 -217.417 948.809 -291.186" stroke="#4D04FF" stroke-opacity="0.5" stroke-width="0.5" stroke-miterlimit="10"/>
<path d="M-130.232 295.459C42.6217 153.652 155.392 131.244 230.572 157.33C301.09 181.834 317.598 243.629 385.336 242.474C469.497 241.063 501.784 142.747 606.429 123.674C667.753 112.47 691.488 156.518 732.542 138.685C789.461 113.924 784.287 28.6945 826.666 -79.1149C850.785 -140.396 883.5 -217.501 950.683 -291.697" stroke="#4D04FF" stroke-opacity="0.5" stroke-width="0.5" stroke-miterlimit="10"/>
<path d="M-130.314 296.958C43.6516 154.595 156.122 133.512 230.532 159.556C301.094 184.231 317.687 245.983 385.169 244.743C469.714 243.16 501.531 143.305 606.775 124.104C668.569 112.814 692.175 157.631 733.4 139.713C790.363 114.952 784.504 29.0385 827.012 -79.5834C850.874 -140.566 884.274 -217.542 952.611 -292.123" stroke="#4D04FF" stroke-opacity="0.5" stroke-width="0.5" stroke-miterlimit="10"/>
<path d="M-130.357 298.414C44.6777 155.495 156.849 135.78 230.49 161.738C301.051 186.627 317.772 248.294 384.998 246.925C469.971 245.172 501.317 143.777 607.117 124.448C669.339 113.072 692.859 158.616 734.255 140.655C791.261 115.895 784.718 29.3392 827.397 -80.0951C851.045 -140.778 885.086 -217.626 954.578 -292.635" stroke="#4D04FF" stroke-opacity="0.5" stroke-width="0.5" stroke-miterlimit="10"/>
<path d="M-130.442 299.861C45.7474 156.386 157.534 138.04 230.447 163.913C301.009 188.973 317.858 250.596 384.827 249.142C470.228 247.261 501.061 144.284 607.459 124.826C670.109 113.365 693.544 159.679 735.111 141.632C792.159 116.829 784.975 29.6322 827.739 -80.6147C851.174 -140.998 885.856 -217.718 956.503 -293.154" stroke="#4D04FF" stroke-opacity="0.5" stroke-width="0.5" stroke-miterlimit="10"/>
<path d="M-130.483 301.365C46.7755 157.335 158.263 140.314 230.406 166.101C300.968 191.332 317.902 252.956 384.658 251.374C470.486 249.364 500.849 144.762 607.846 125.218C670.924 113.672 694.23 160.756 736.011 142.624C793.102 117.82 785.233 29.9819 828.169 -81.0775C851.39 -141.162 886.713 -217.753 958.515 -293.617" stroke="#4D04FF" stroke-opacity="0.5" stroke-width="0.5" stroke-miterlimit="10"/>
<path d="M-130.573 302.817C47.7975 158.23 158.985 142.578 230.316 168.323C300.878 193.768 317.941 254.194 384.44 253.595C470.696 252.825 500.588 145.273 608.141 125.601C671.646 113.969 694.867 161.822 736.819 143.605C793.953 118.801 785.443 30.3216 828.464 -81.5932C851.471 -141.378 887.479 -217.841 960.392 -294.133" stroke="#4D04FF" stroke-opacity="0.5" stroke-width="0.5" stroke-miterlimit="10"/>
<path d="M-130.659 304.269C48.8235 159.126 159.669 144.843 230.273 170.459C300.835 196.075 318.026 256.629 384.268 255.774C470.952 254.662 500.331 145.741 608.483 125.941C672.416 114.223 695.551 162.804 737.674 144.544C794.808 119.74 785.656 30.5761 828.805 -82.1084C851.599 -141.594 888.248 -217.928 962.274 -294.605" stroke="#4D04FF" stroke-opacity="0.5" stroke-width="0.5" stroke-miterlimit="10"/>
<path d="M-130.702 305.767C49.8924 160.069 160.396 147.154 230.23 172.684C300.792 198.514 318.111 259.154 384.097 258.042C471.208 256.545 500.117 146.298 608.824 126.413C673.185 114.61 696.235 163.96 738.529 145.614C795.705 120.768 785.912 31.0054 829.19 -82.5344C851.77 -141.72 889.06 -217.927 964.24 -295.031" stroke="#4D04FF" stroke-opacity="0.5" stroke-width="0.5" stroke-miterlimit="10"/>
<path d="M-130.787 307.225C50.9193 160.97 161.081 149.424 230.188 174.868C300.75 200.869 318.155 261.638 383.927 260.226C471.466 258.387 499.861 146.772 609.21 126.758C673.998 114.913 696.963 164.99 739.471 146.516C796.69 121.669 786.212 31.2652 829.618 -83.0871C851.984 -141.974 889.916 -218.052 966.251 -295.584" stroke="#4D04FF" stroke-opacity="0.5" stroke-width="0.5" stroke-miterlimit="10"/>
<path d="M-130.872 308.678C51.9462 161.91 161.765 151.775 230.103 177.049C300.622 203.392 318.198 264.075 383.713 262.45C471.637 260.269 499.605 147.285 609.51 127.143C674.726 115.211 697.605 166.016 740.284 147.499C797.546 122.652 786.598 31.6496 829.918 -83.6008C852.156 -142.188 890.644 -218.138 968.133 -296.098" stroke="#4D04FF" stroke-opacity="0.5" stroke-width="0.5" stroke-miterlimit="10"/>
<path d="M-130.914 310.171C53.0161 162.847 162.493 154.038 230.104 179.269C300.665 205.74 318.327 266.508 383.586 264.712C471.937 262.018 499.392 147.794 609.896 127.567C675.582 115.55 698.333 167.124 741.183 148.521C798.487 123.675 786.812 31.9879 830.347 -84.0322C852.328 -142.32 891.543 -218.142 970.144 -296.486" stroke="#4D04FF" stroke-opacity="0.5" stroke-width="0.5" stroke-miterlimit="10"/>
<path d="M-131 311.625C54.0421 163.745 163.22 156.218 230.018 181.449C300.579 208.049 318.37 269.074 383.372 266.893C472.151 263.985 499.135 148.264 610.195 127.908C676.308 115.806 698.931 168.15 741.995 149.462C799.342 124.573 786.94 32.244 830.646 -84.5459C852.37 -142.535 892.269 -218.228 972.025 -297" stroke="#4D04FF" stroke-opacity="0.5" stroke-width="0.5" stroke-miterlimit="10"/>
</svg>
