<svg width="16" height="16" viewBox="0 0 16 16" fill="none" xmlns="http://www.w3.org/2000/svg">
<path d="M0.186348 6.87782C0.292462 6.81425 2.69304 5.35318 3.78472 2.70583C3.8633 2.51513 4.08154 2.42403 4.27224 2.50211C4.36835 2.54166 4.43942 2.61674 4.47596 2.70583C5.59116 5.40924 8.07133 6.87582 8.07834 6.88032C8.25553 6.98594 8.31309 7.21568 8.20698 7.39288C8.17344 7.44944 8.12739 7.49348 8.07433 7.52452C7.96822 7.58809 5.56764 9.04916 4.47596 11.6965C4.39738 11.8872 4.17914 11.9783 3.98794 11.9002C3.89183 11.8607 3.82126 11.7856 3.78422 11.6965C2.66902 8.9931 0.188851 7.52652 0.181843 7.52201C0.00465263 7.4164 -0.0529093 7.18665 0.0532049 7.00946C0.0867409 6.9529 0.13279 6.90885 0.185848 6.87782H0.186348ZM7.09328 11.9493C7.16486 11.9062 8.73755 10.9482 9.45482 9.20983C9.5334 9.01912 9.75164 8.92753 9.94234 9.00611C10.0384 9.04565 10.1095 9.12073 10.1461 9.20983C10.8784 10.9862 12.5056 11.9478 12.5101 11.9508C12.6873 12.0559 12.7454 12.2851 12.6407 12.4623C12.6072 12.5189 12.5607 12.5634 12.5076 12.5945C12.436 12.637 10.8628 13.5955 10.1461 15.3339C10.0675 15.5246 9.84924 15.6157 9.65854 15.5376C9.56244 15.4981 9.49136 15.423 9.45482 15.3339C8.72253 13.5575 7.09528 12.5955 7.09078 12.593C6.91359 12.4879 6.85552 12.2591 6.96064 12.0819C6.99417 12.0254 7.04022 11.9808 7.09378 11.9498L7.09328 11.9493ZM9.80069 10.1919C9.21957 11.192 8.42822 11.8952 7.93368 12.2721C8.42822 12.649 9.21907 13.3523 9.80069 14.3524C10.3818 13.3523 11.1727 12.649 11.6672 12.2721C11.1727 11.8952 10.3818 11.192 9.80069 10.1919ZM9.1595 3.68739C9.27112 3.62032 11.2422 2.41001 12.1407 0.231671C12.2193 0.0409655 12.4375 -0.0501325 12.6282 0.0279515C12.7243 0.067494 12.7954 0.142575 12.832 0.231671C13.7554 2.47058 15.8127 3.68689 15.8187 3.69039C15.9959 3.79701 16.0529 4.02725 15.9463 4.20444C15.9123 4.26051 15.8662 4.30455 15.8137 4.33509C15.702 4.40216 13.7309 5.61246 12.8325 7.7908C12.7539 7.98151 12.5356 8.07311 12.3444 7.99452C12.2483 7.95498 12.1777 7.8799 12.1407 7.7908C11.2177 5.55189 9.1605 4.33559 9.1545 4.33208C8.97731 4.22547 8.92024 3.99522 9.02686 3.81803C9.06039 3.76197 9.10644 3.71792 9.1595 3.68739ZM12.4861 1.23375C11.7258 2.61173 10.6296 3.55324 10.0114 4.01124C10.6296 4.46923 11.7258 5.41074 12.4861 6.78873C13.2464 5.41074 14.3426 4.46923 14.9612 4.01124C14.3431 3.55324 13.2464 2.61173 12.4861 1.23375ZM4.13009 3.72343C3.19158 5.48833 1.77506 6.6701 1.04227 7.20167C1.77506 7.73274 3.19158 8.91451 4.13009 10.6799C5.0686 8.91501 6.48512 7.73274 7.21791 7.20167C6.48512 6.6706 5.0686 5.48883 4.13009 3.72343Z" fill="#2737C9"/>
</svg>
