<svg width="194" height="24" viewBox="0 0 194 24" fill="none" xmlns="http://www.w3.org/2000/svg">
<path d="M40.8077 2.69229H55.0579V23.6711H57.922V2.69229H67.527C70.6704 2.69229 72.1723 4.47548 72.1723 7.97195V23.6711H75.0712V7.69223C75.0712 2.58739 72.8359 0 68.1207 0H37.8738V23.6711H40.8077V2.69229Z" fill="white"/>
<path d="M24.5993 13.5893C28.5018 13.5893 29.8955 11.6931 29.8955 8.2168V5.37253C29.8955 1.89619 28.5018 0 24.5993 0H5.36586C1.46342 0 0 1.89619 0 5.37253V16.0473C0 21.2092 2.22996 23.7725 7.03833 23.7725H29.3032V21.0687H7.59583C4.39025 21.0687 2.92683 19.2779 2.92683 15.7664V13.5893H24.5993ZM2.92683 6.00459C2.92683 3.72214 3.8676 2.45802 6.34147 2.45802H23.6237C26.0976 2.45802 27.0035 3.72214 27.0035 6.00459V7.7252C27.0035 10.0428 26.0976 11.3069 23.6237 11.3069H2.92683V6.00459Z" fill="white"/>
<path d="M112.381 10.9909V5.37253C112.381 1.89619 111.023 0 107.12 0H83.2524V23.7725H86.1793V16.8199H107.12C111.023 16.8199 112.381 15.0993 112.381 10.9909ZM86.1793 14.5023V2.45802H106.11C108.618 2.45802 109.524 3.72214 109.524 6.00459V10.6397C109.524 13.3435 108.618 14.5023 106.11 14.5023H86.1793Z" fill="white"/>
<path d="M144.124 21.0687H126.563C123.427 21.0687 121.963 19.2779 121.963 15.7664V0H119.036V16.0473C119.036 21.2092 121.266 23.7725 126.005 23.7725H144.124V21.0687Z" fill="white"/>
<path d="M181.266 7.7252C181.266 2.56336 179.002 0 174.089 0H150.953V5.0565H172.904C174.89 5.0565 175.831 6.10993 175.831 8.28703V9.79696H155.831C151.824 9.79696 150.36 11.6931 150.36 15.1695V18.4C150.36 21.8764 151.824 23.7725 155.831 23.7725H181.266V7.7252ZM175.831 19.1725H157.817C156.353 19.1725 155.796 18.4351 155.796 17.0306V15.8367C155.796 14.5023 156.353 13.7649 157.817 13.7649H175.831V19.1725ZM188.34 0H193.81V23.7725H188.34V0Z" fill="url(#paint0_linear_67_330)"/>
<defs>
<linearGradient id="paint0_linear_67_330" x1="156.773" y1="27.622" x2="189.242" y2="-4.59533" gradientUnits="userSpaceOnUse">
<stop offset="4.1336e-05" stop-color="#B325FF"/>
<stop offset="0.75" stop-color="#4D04FF"/>
</linearGradient>
</defs>
</svg>
