<svg width="10" height="12" viewBox="0 0 10 12" fill="none" xmlns="http://www.w3.org/2000/svg">
<path d="M3.55072 10.5924C3.10386 8.40639 1.66667 6.71285 0 6.12432C1.66667 5.54779 3.10386 3.84224 3.55072 1.65625C3.99758 3.84224 5.43478 5.54779 7.10145 6.12432C5.42271 6.71285 3.98551 8.40639 3.55072 10.5924Z" fill="white"/>
<path d="M7.86205 5.39291C7.59635 4.07171 6.72678 3.05078 5.72437 2.70246C6.72678 2.34213 7.59635 1.3212 7.86205 0C8.12775 1.3212 8.99731 2.34213 9.99973 2.69045C8.99731 3.05078 8.12775 4.07171 7.86205 5.39291Z" fill="white"/>
<path d="M7.52383 11.4099C7.30644 10.365 6.63011 9.54823 5.83301 9.27198C6.63011 8.99573 7.31851 8.17898 7.52383 7.13403C7.74122 8.17898 8.41755 8.99573 9.21465 9.27198C8.41755 9.54823 7.72914 10.365 7.52383 11.4099Z" fill="white"/>
</svg>
