<svg width="30" height="30" viewBox="0 0 30 30" fill="none" xmlns="http://www.w3.org/2000/svg">
<rect width="30" height="30" rx="15" fill="#292929"/>
<path d="M13.5214 21.8716C12.9524 19.0727 11.1223 16.9042 9 16.1507C11.1223 15.4125 12.9524 13.2287 13.5214 10.4297C14.0904 13.2287 15.9205 15.4125 18.0428 16.1507C15.9051 16.9042 14.0751 19.0727 13.5214 21.8716Z" fill="white"/>
<path d="M19.0116 15.2128C18.6733 13.5211 17.566 12.2139 16.2896 11.7679C17.566 11.3065 18.6733 9.9993 19.0116 8.30762C19.35 9.9993 20.4572 11.3065 21.7337 11.7525C20.4572 12.2139 19.35 13.5211 19.0116 15.2128Z" fill="white"/>
<path d="M18.5813 22.9175C18.3045 21.5796 17.4432 20.5338 16.4282 20.1801C17.4432 19.8264 18.3198 18.7806 18.5813 17.4426C18.8581 18.7806 19.7193 19.8264 20.7343 20.1801C19.7193 20.5338 18.8427 21.5796 18.5813 22.9175Z" fill="white"/>
</svg>
