<svg width="419" height="266" viewBox="0 0 419 266" fill="none" xmlns="http://www.w3.org/2000/svg">
<path d="M-93.0869 209.466C-48.6471 161.335 14.1115 108.454 74.6351 121.505C106.803 128.449 111.292 148.185 151.043 160.257C212.963 179.095 305.535 162.652 339.259 98.756C359.174 61.041 351.511 20.1731 345.604 -0.759766" stroke="#4D04FF" stroke-opacity="0.2" stroke-width="0.5" stroke-miterlimit="10"/>
<path d="M-93.126 210.165C-48.1673 161.774 14.4516 109.512 74.5961 122.543C106.764 129.547 111.313 149.382 150.944 161.315C176.706 168.978 207.277 170.056 237.25 164.887C251.936 162.353 266.144 158.581 279.474 152.695C304.877 141.46 326.309 123.56 339.399 98.5567C359.195 60.9615 351.851 20.1734 346.463 -0.958984" stroke="#4D04FF" stroke-opacity="0.2" stroke-width="0.5" stroke-miterlimit="10"/>
<path d="M-93.1455 210.843C-47.668 162.192 14.7913 110.529 74.5965 123.559C106.784 130.623 111.334 150.718 150.885 162.352C176.826 169.995 207.178 170.294 237.45 165.066C252.356 162.491 266.484 159.079 279.914 153.153C305.337 141.918 326.369 123.679 339.619 98.3161C359.215 60.8206 352.291 20.1323 347.422 -1.17969" stroke="#4D04FF" stroke-opacity="0.2" stroke-width="0.5" stroke-miterlimit="10"/>
<path d="M-93.1855 211.521C-47.1892 162.612 15.1304 111.567 74.5564 124.577C106.744 131.721 111.334 151.956 150.785 163.39C176.906 170.953 207.058 170.534 237.589 165.266C252.695 162.651 266.783 159.598 280.293 153.632C305.735 142.397 326.389 123.819 339.759 98.1169C359.195 60.7211 352.63 20.1326 348.3 -1.37891" stroke="#4D04FF" stroke-opacity="0.2" stroke-width="0.5" stroke-miterlimit="10"/>
<path d="M-93.2061 212.219C-46.6909 163.07 15.489 112.624 74.5559 125.595C106.743 132.798 111.353 153.212 150.704 164.407C177.005 171.89 206.938 170.753 237.748 165.425C253.054 162.771 267.102 160.057 280.691 154.07C306.154 142.836 326.448 123.918 339.938 97.8571C359.214 60.5811 353.008 20.0724 349.217 -1.63867" stroke="#4D04FF" stroke-opacity="0.2" stroke-width="0.5" stroke-miterlimit="10"/>
<path d="M-93.2461 212.895C-46.2121 163.486 15.848 113.499 74.5158 126.609C106.743 133.813 111.373 154.466 150.624 165.442C177.105 172.865 206.838 170.969 237.908 165.601C253.413 162.907 267.421 160.553 281.09 154.526C306.553 143.272 326.488 124.055 340.097 97.6345C359.214 60.4782 353.367 20.0493 350.115 -1.86133" stroke="#4D04FF" stroke-opacity="0.2" stroke-width="0.5" stroke-miterlimit="10"/>
<path d="M-93.2861 213.575C-45.7333 163.907 16.1872 114.519 74.4958 127.649C106.743 134.913 111.393 155.726 150.544 166.502C177.224 173.845 206.718 171.231 238.087 165.803C253.792 163.069 267.76 161.074 281.509 155.007C306.992 143.753 326.568 124.197 340.277 97.4172C359.254 60.3807 353.747 20.0316 351.033 -2.05859" stroke="#4D04FF" stroke-opacity="0.2" stroke-width="0.5" stroke-miterlimit="10"/>
<path d="M-93.3057 214.275C-45.2539 164.348 16.5268 115.538 74.4763 128.668C106.744 135.972 111.433 156.964 150.465 167.52C177.325 174.784 206.618 171.452 238.247 165.964C254.151 163.19 268.08 161.534 281.909 155.448C307.411 144.193 326.628 124.318 340.457 97.1789C359.274 60.2621 354.146 19.9929 351.951 -2.29688" stroke="#4D04FF" stroke-opacity="0.2" stroke-width="0.5" stroke-miterlimit="10"/>
<path d="M-93.3447 214.953C-44.7742 164.766 16.8669 116.555 74.4571 129.685C106.724 137.049 111.434 158.201 150.366 168.558C177.425 175.742 206.5 171.691 238.388 166.143C254.491 163.349 268.38 162.032 282.289 155.886C307.811 144.632 326.649 124.417 340.597 96.9192C359.275 60.1022 354.486 19.9327 352.83 -2.55664" stroke="#4D04FF" stroke-opacity="0.2" stroke-width="0.5" stroke-miterlimit="10"/>
<path d="M-93.3848 215.628C-44.2754 165.182 17.226 117.569 74.4171 130.7C106.704 138.123 111.474 159.455 150.286 169.592C177.525 176.696 206.38 171.927 238.547 166.32C254.85 163.486 268.679 162.528 282.688 156.342C308.23 145.068 326.709 124.534 340.757 96.6965C359.275 59.9992 354.845 19.9096 353.728 -2.7793" stroke="#4D04FF" stroke-opacity="0.2" stroke-width="0.5" stroke-miterlimit="10"/>
<path d="M-93.4053 216.33C-43.7971 165.624 17.5647 118.59 74.3966 131.721C106.684 139.184 111.473 160.695 150.206 170.613C177.624 177.637 206.279 172.15 238.726 166.502C255.229 163.629 269.018 163.03 283.126 156.804C308.689 145.53 326.788 124.677 340.976 96.4602C359.354 59.8826 355.264 19.8728 354.665 -3.01562" stroke="#4D04FF" stroke-opacity="0.2" stroke-width="0.5" stroke-miterlimit="10"/>
<path d="M-93.4443 217.009C-43.3173 166.044 17.9047 119.588 74.3775 132.739C106.685 140.262 111.514 161.933 150.127 171.651C177.745 178.615 206.16 172.389 238.887 166.682C255.609 163.769 269.338 163.509 283.526 157.264C309.089 145.989 326.849 124.797 341.136 96.241C359.375 59.7832 355.624 19.8532 355.564 -3.21484" stroke="#4D04FF" stroke-opacity="0.2" stroke-width="0.5" stroke-miterlimit="10"/>
<path d="M-93.4648 217.706C-42.819 166.482 18.2634 120.625 74.357 133.775C106.684 141.358 111.533 163.189 150.046 172.708C177.844 179.592 206.06 172.628 239.046 166.881C255.968 163.927 269.657 164.027 283.925 157.741C309.507 146.467 326.908 124.955 341.315 96.0203C359.415 59.6822 356.022 19.832 356.481 -3.43555" stroke="#4D04FF" stroke-opacity="0.2" stroke-width="0.5" stroke-miterlimit="10"/>
<path d="M-93.5049 218.384C-42.3402 166.9 18.6025 121.622 74.3369 134.792C106.664 142.435 111.573 164.406 149.966 173.725C177.963 180.529 205.94 172.847 239.205 167.04C256.327 164.046 269.976 164.505 284.324 158.18C309.926 146.905 326.948 125.054 341.475 95.7803C359.434 59.5819 356.381 19.7916 357.379 -3.67554" stroke="#4D04FF" stroke-opacity="0.2" stroke-width="0.5" stroke-miterlimit="10"/>
<path d="M-93.5459 219.062C-41.8624 167.318 18.9406 122.639 74.2959 135.809C106.663 143.492 111.592 165.642 149.886 174.761C178.082 181.486 205.839 173.085 239.384 167.218C256.705 164.185 270.314 164.983 284.742 158.638C310.364 147.343 327.026 125.193 341.653 95.5399C359.473 59.4612 356.759 19.7507 358.296 -3.91602" stroke="#4D04FF" stroke-opacity="0.2" stroke-width="0.5" stroke-miterlimit="10"/>
<path d="M-93.5654 219.762C-41.3631 167.759 19.2803 123.678 74.2963 136.849C106.663 144.591 111.632 166.881 149.806 175.821C178.182 182.466 205.72 173.346 239.544 167.42C257.064 164.347 270.614 165.504 285.141 159.118C310.783 147.824 327.087 125.335 341.833 95.3422C359.513 59.3832 357.139 19.7525 359.214 -4.09375" stroke="#4D04FF" stroke-opacity="0.2" stroke-width="0.5" stroke-miterlimit="10"/>
<path d="M-93.6045 220.44C-40.8833 168.178 19.6204 124.696 74.2572 137.846C106.624 145.648 111.633 168.098 149.707 176.838C178.283 183.383 205.601 173.566 239.684 167.579C257.405 164.466 270.914 165.983 285.521 159.557C311.183 148.263 327.127 125.454 341.974 95.0824C359.514 59.2432 357.479 19.6923 360.093 -4.35352" stroke="#4D04FF" stroke-opacity="0.2" stroke-width="0.5" stroke-miterlimit="10"/>
<path d="M-93.625 221.119C-40.4049 168.617 19.979 125.714 74.2367 138.884C106.624 146.746 111.672 169.335 149.627 177.876C178.382 184.342 205.481 173.805 239.844 167.779C257.763 164.626 271.233 166.502 285.92 160.036C311.602 148.742 327.167 125.594 342.133 94.8832C359.534 59.1637 357.858 19.6926 360.99 -4.55273" stroke="#4D04FF" stroke-opacity="0.2" stroke-width="0.5" stroke-miterlimit="10"/>
<path d="M-93.665 221.818C-39.9062 169.037 20.3181 126.733 74.2166 139.903C106.624 147.825 111.692 170.574 149.547 178.915C178.502 185.301 205.381 174.026 240.003 167.96C258.122 164.767 271.552 166.982 286.319 160.496C312.001 149.182 327.226 125.735 342.312 94.6449C359.574 59.0651 358.237 19.6539 361.908 -4.79102" stroke="#4D04FF" stroke-opacity="0.2" stroke-width="0.5" stroke-miterlimit="10"/>
<path d="M-93.7051 222.496C-39.4274 169.475 20.6572 127.749 74.1965 140.919C106.604 148.881 111.732 171.79 149.467 179.951C178.621 186.257 205.281 174.264 240.182 168.138C258.501 164.905 271.891 167.48 286.738 160.954C312.44 149.64 327.306 125.853 342.492 94.4242C359.613 58.9441 358.616 19.6128 362.806 -5.01172" stroke="#4D04FF" stroke-opacity="0.2" stroke-width="0.5" stroke-miterlimit="10"/>
<path d="M-93.7256 223.171C-38.949 169.891 21.0158 128.764 74.1761 141.934C106.603 149.956 111.771 173.004 149.387 180.966C178.72 187.192 205.161 174.481 240.342 168.295C258.88 165.022 272.21 167.956 287.136 161.391C312.858 150.076 327.366 125.97 342.671 94.1621C359.673 58.8217 358.994 19.5702 363.724 -5.25391" stroke="#4D04FF" stroke-opacity="0.2" stroke-width="0.5" stroke-miterlimit="10"/>
<path d="M-93.7637 223.874C-38.4683 170.335 21.3569 129.806 74.1579 142.957C106.585 151.059 111.793 174.226 149.309 182.009C178.842 188.135 205.063 174.725 240.503 168.479C259.241 165.167 272.531 168.439 287.537 161.854C313.279 150.54 327.427 126.115 342.832 93.9472C359.694 58.7465 359.355 19.5549 364.623 -5.46875" stroke="#4D04FF" stroke-opacity="0.2" stroke-width="0.5" stroke-miterlimit="10"/>
<path d="M-93.8037 224.552C-37.9695 170.753 21.696 130.823 74.1179 143.994C106.585 152.135 111.833 175.443 149.209 183.046C178.942 189.092 204.923 174.964 240.643 168.658C259.58 165.306 272.81 168.937 287.916 162.312C313.678 150.978 327.467 126.234 342.972 93.707C359.694 58.626 359.714 19.5142 365.501 -5.70898" stroke="#4D04FF" stroke-opacity="0.2" stroke-width="0.5" stroke-miterlimit="10"/>
<path d="M-93.8252 225.229C-37.4921 171.171 22.0337 131.84 74.0964 145.01C106.563 153.212 111.851 176.679 149.127 184.082C179.06 190.029 204.822 175.202 240.821 168.836C259.958 165.444 273.148 169.435 288.334 162.77C314.116 151.436 327.545 126.372 343.17 93.4863C359.773 58.5251 360.112 19.493 366.438 -5.92969" stroke="#4D04FF" stroke-opacity="0.2" stroke-width="0.5" stroke-miterlimit="10"/>
<path d="M-93.8652 225.927C-37.0134 171.609 22.3728 132.876 74.0763 146.027C106.543 154.288 111.891 177.895 149.047 185.119C179.16 190.985 204.702 175.44 240.98 169.015C260.317 165.583 273.467 169.913 288.753 163.228C314.534 151.893 327.625 126.511 343.35 93.2456C359.812 58.4241 360.491 19.4719 367.355 -6.15039" stroke="#4D04FF" stroke-opacity="0.2" stroke-width="0.5" stroke-miterlimit="10"/>
<path d="M-93.8838 226.608C-36.5131 172.031 22.7134 133.897 74.0577 147.047C106.545 155.368 111.932 179.095 148.969 186.159C179.281 191.926 204.604 175.663 241.141 169.217C260.677 165.745 273.788 170.434 289.153 163.69C314.955 152.355 327.686 126.633 343.511 93.0288C359.854 58.327 360.851 19.4546 368.255 -6.36719" stroke="#4D04FF" stroke-opacity="0.2" stroke-width="0.5" stroke-miterlimit="10"/>
<path d="M-93.9238 227.305C-36.0343 172.469 23.0526 134.934 74.0377 148.084C106.544 156.465 111.972 180.331 148.889 187.196C179.4 192.883 204.484 175.901 241.301 169.396C261.036 165.884 274.107 170.932 289.552 164.148C315.374 152.793 327.746 126.772 343.69 92.7886C359.913 58.2265 361.23 19.4139 369.173 -6.60742" stroke="#4D04FF" stroke-opacity="0.2" stroke-width="0.5" stroke-miterlimit="10"/>
<path d="M-93.9639 227.983C-35.5555 172.887 23.4116 135.95 74.0176 149.1C106.524 157.541 111.992 181.527 148.809 188.232C179.52 193.82 204.384 176.139 241.48 169.574C261.415 166.022 274.446 171.43 289.971 164.605C315.813 153.251 327.826 126.91 343.869 92.5678C359.953 58.1254 361.629 19.3927 370.09 -6.82825" stroke="#4D04FF" stroke-opacity="0.2" stroke-width="0.5" stroke-miterlimit="10"/>
<path d="M-93.9844 228.662C-35.0572 173.307 23.7503 136.989 73.9971 150.099C106.504 158.6 112.031 182.745 148.709 189.271C179.619 194.758 204.263 176.38 241.619 169.755C261.774 166.163 274.725 171.91 290.35 165.065C316.211 153.711 327.865 127.051 344.009 92.3292C359.973 58.0265 361.968 19.3536 370.968 -7.04688" stroke="#4D04FF" stroke-opacity="0.2" stroke-width="0.5" stroke-miterlimit="10"/>
<path d="M-94.0244 229.361C-34.5784 173.766 24.0894 138.027 73.957 151.137C106.484 159.698 112.051 183.943 148.629 190.309C179.739 195.717 204.144 176.62 241.779 169.935C262.133 166.303 275.044 172.409 290.748 165.525C316.63 154.171 327.925 127.171 344.188 92.1104C360.032 57.9275 362.347 19.3344 371.866 -7.26562" stroke="#4D04FF" stroke-opacity="0.2" stroke-width="0.5" stroke-miterlimit="10"/>
<path d="M-94.0439 230.039C-34.099 174.185 24.4291 139.044 73.9375 152.155C106.484 160.775 112.091 185.16 148.549 191.327C179.839 196.635 204.044 176.839 241.939 170.094C262.493 166.423 275.364 172.888 291.148 165.964C317.05 154.589 328.005 127.291 344.348 91.8507C360.053 57.8074 362.707 19.2742 372.764 -7.52539" stroke="#4D04FF" stroke-opacity="0.2" stroke-width="0.5" stroke-miterlimit="10"/>
<path d="M-94.084 230.717C-33.6003 174.603 24.7682 140.081 73.9175 153.171C106.484 161.852 112.131 186.356 148.469 192.363C179.959 197.571 203.925 177.077 242.118 170.273C262.872 166.581 275.703 173.366 291.567 166.421C317.469 155.047 328.085 127.429 344.548 91.63C360.133 57.7064 363.126 19.2531 373.702 -7.74609" stroke="#4D04FF" stroke-opacity="0.2" stroke-width="0.5" stroke-miterlimit="10"/>
<path d="M-94.124 231.417C-33.1215 175.045 25.1073 141.121 73.8973 154.211C106.464 162.932 112.171 187.556 148.389 193.403C180.078 198.512 203.825 177.299 242.278 170.475C263.231 166.743 276.022 173.887 291.966 166.903C317.887 155.528 328.144 127.591 344.707 91.413C360.172 57.6291 363.485 19.2356 374.6 -7.94312" stroke="#4D04FF" stroke-opacity="0.2" stroke-width="0.5" stroke-miterlimit="10"/>
<path d="M-94.1426 232.095C-32.6412 175.462 25.4679 142.137 73.8788 155.228C106.465 164.028 112.212 188.772 148.311 194.439C180.199 199.448 203.706 177.537 242.439 170.653C263.591 166.881 276.343 174.385 292.366 167.36C318.308 155.986 328.226 127.71 344.868 91.192C360.214 57.5479 363.845 19.2142 375.499 -8.16406" stroke="#4D04FF" stroke-opacity="0.2" stroke-width="0.5" stroke-miterlimit="10"/>
<path d="M-94.1836 232.772C-32.1634 175.88 25.786 143.174 73.8577 156.245C106.444 165.105 112.251 189.969 148.23 195.476C180.318 200.385 203.605 177.776 242.597 170.832C263.949 167.02 276.661 174.883 292.764 167.819C318.726 156.444 328.284 127.849 345.047 90.9518C360.272 57.4274 364.223 19.1736 376.416 -8.4043" stroke="#4D04FF" stroke-opacity="0.2" stroke-width="0.5" stroke-miterlimit="10"/>
<path d="M-94.2227 233.471C-31.6636 176.32 26.1461 144.213 73.8186 157.263C106.425 166.183 112.292 191.167 148.131 196.515C180.418 201.324 203.467 178.016 242.738 171.012C264.289 167.161 276.941 175.362 293.144 168.278C319.126 156.884 328.325 127.989 345.187 90.733C360.313 57.3283 364.603 19.1344 377.315 -8.62305" stroke="#4D04FF" stroke-opacity="0.2" stroke-width="0.5" stroke-miterlimit="10"/>
<path d="M-94.2441 234.151C-31.1862 176.74 26.4838 145.251 73.7972 158.282C106.424 167.262 112.31 192.365 148.05 197.534C180.537 202.243 203.365 178.237 242.916 171.173C264.667 167.282 277.279 175.842 293.562 168.718C319.563 157.324 328.423 128.11 345.365 90.4948C360.351 57.2497 364.961 19.1156 378.211 -8.86133" stroke="#4D04FF" stroke-opacity="0.2" stroke-width="0.5" stroke-miterlimit="10"/>
<path d="M-94.2842 234.826C-30.7074 177.176 26.8229 146.286 73.7771 159.296C106.404 168.356 112.35 193.539 147.97 198.568C180.656 203.177 203.265 178.473 243.076 171.349C265.046 167.418 277.598 176.338 293.981 169.174C319.982 157.78 328.503 128.246 345.565 90.2519C360.431 57.1266 365.36 19.0723 379.149 -9.08423" stroke="#4D04FF" stroke-opacity="0.2" stroke-width="0.5" stroke-miterlimit="10"/>
<path d="M-94.3027 235.526C-30.2072 177.596 27.1635 147.324 73.7585 160.335C106.405 169.434 112.391 194.757 147.891 199.606C180.777 204.116 203.147 178.714 243.237 171.53C265.407 167.559 277.918 176.818 294.381 169.634C320.403 158.24 328.584 128.387 345.726 90.0334C360.472 57.0477 365.721 19.0534 380.028 -9.30273" stroke="#4D04FF" stroke-opacity="0.2" stroke-width="0.5" stroke-miterlimit="10"/>
<path d="M-94.3438 236.203C-29.7294 178.014 27.5017 148.361 73.7375 161.352C106.384 170.531 112.43 195.954 147.811 200.643C180.896 205.033 203.046 178.932 243.395 171.709C265.765 167.698 278.237 177.316 294.779 170.092C320.821 158.678 328.643 128.526 345.904 89.7932C360.531 56.9472 366.099 19.0127 380.945 -9.54297" stroke="#4D04FF" stroke-opacity="0.2" stroke-width="0.5" stroke-miterlimit="10"/>
<path d="M-94.3828 236.906C-29.2496 178.458 27.8418 149.403 73.7184 162.374C106.385 171.613 112.471 197.136 147.732 201.685C181.017 205.976 202.927 179.176 243.576 171.912C266.145 167.861 278.577 177.839 295.199 170.575C321.261 159.161 328.744 128.69 346.085 89.5979C360.592 56.8716 366.479 19.0169 381.864 -9.73828" stroke="#4D04FF" stroke-opacity="0.2" stroke-width="0.5" stroke-miterlimit="10"/>
<path d="M-94.4023 237.581C-28.7503 178.873 28.1814 150.438 73.6988 163.388C106.365 172.687 112.511 198.33 147.652 202.72C181.137 206.89 202.828 179.412 243.736 172.089C266.504 167.998 278.876 178.335 295.599 171.031C321.68 159.617 328.804 128.826 346.245 89.3552C360.652 56.7687 366.858 18.9739 382.762 -9.96094" stroke="#4D04FF" stroke-opacity="0.2" stroke-width="0.5" stroke-miterlimit="10"/>
<path d="M-94.4443 238.26C-28.2735 179.313 28.5186 151.476 73.6569 164.407C106.343 173.786 112.529 199.508 147.55 203.758C181.234 207.829 202.686 179.653 243.873 172.269C266.842 168.138 279.174 178.814 295.976 171.491C322.077 160.077 328.862 128.967 346.402 89.1365C360.69 56.6896 367.215 18.9547 383.658 -10.1797" stroke="#4D04FF" stroke-opacity="0.2" stroke-width="0.5" stroke-miterlimit="10"/>
<path d="M-94.4629 238.959C-27.7732 179.752 28.8592 152.513 73.6582 165.444C106.345 174.883 112.61 200.725 147.492 204.796C181.375 208.747 202.608 179.892 244.054 172.448C267.222 168.278 279.514 179.313 296.396 171.93C322.517 160.495 328.963 129.086 346.583 88.8767C360.751 56.5696 367.596 18.8944 384.578 -10.4395" stroke="#4D04FF" stroke-opacity="0.2" stroke-width="0.5" stroke-miterlimit="10"/>
<path d="M-94.502 239.64C-27.2934 180.174 29.1993 153.554 73.6192 166.465C106.325 175.963 112.631 201.905 147.393 205.836C181.476 209.687 202.469 180.134 244.215 172.631C267.582 168.42 279.834 179.814 296.796 172.391C322.917 160.957 329.024 129.229 346.744 88.6599C360.792 56.4924 367.956 18.8772 385.476 -10.6562" stroke="#4D04FF" stroke-opacity="0.2" stroke-width="0.5" stroke-miterlimit="10"/>
<path d="M-94.541 240.313C-26.8136 180.588 29.5394 154.586 73.6001 167.477C106.326 177.056 112.672 203.077 147.314 206.868C181.597 210.6 202.37 180.368 244.375 172.805C267.942 168.555 280.155 180.288 297.196 172.845C323.337 161.411 329.104 129.363 346.924 88.4154C360.873 56.3676 368.336 18.8322 386.395 -10.8809" stroke="#4D04FF" stroke-opacity="0.2" stroke-width="0.5" stroke-miterlimit="10"/>
<path d="M-94.5625 241.015C-26.3362 181.03 29.8771 155.627 73.5786 168.498C106.305 178.136 112.71 204.277 147.233 207.889C181.715 211.501 202.249 180.571 244.533 172.968C268.32 168.678 280.472 180.77 297.594 173.287C323.755 161.853 329.183 129.486 347.082 88.179C360.911 56.271 368.714 18.7954 387.292 -11.1172" stroke="#4D04FF" stroke-opacity="0.2" stroke-width="0.5" stroke-miterlimit="10"/>
<path d="M-94.6035 241.692C-25.8584 181.448 30.2152 156.664 73.5575 169.515C106.304 179.213 112.749 205.454 147.152 208.926C181.834 212.438 202.148 180.809 244.692 173.166C268.678 168.836 280.79 181.288 297.992 173.765C324.173 162.311 329.261 129.644 347.261 87.9583C360.97 56.1899 369.092 18.7743 388.208 -11.3379" stroke="#4D04FF" stroke-opacity="0.2" stroke-width="0.5" stroke-miterlimit="10"/>
<path d="M-94.623 242.369C-25.3591 181.866 30.5549 157.72 73.5181 170.531C106.264 180.309 112.77 206.63 147.052 209.962C181.934 213.355 202.028 181.048 244.852 173.345C269.037 168.975 281.09 181.766 298.391 174.223C324.592 162.769 329.342 129.783 347.421 87.7379C361.03 56.1092 369.451 18.7533 389.087 -11.5583" stroke="#4D04FF" stroke-opacity="0.2" stroke-width="0.5" stroke-miterlimit="10"/>
<path d="M-94.6621 243.067C-24.8794 182.304 30.8949 158.757 73.4989 171.568C106.265 181.406 112.81 207.826 146.973 210.999C182.054 214.272 201.91 181.286 245.012 173.524C269.397 169.113 281.41 182.264 298.791 174.681C325.012 163.227 329.422 129.922 347.581 87.4974C361.071 56.0084 369.811 18.7124 389.986 -11.7988" stroke="#4D04FF" stroke-opacity="0.2" stroke-width="0.5" stroke-miterlimit="10"/>
<path d="M-94.7031 243.75C-24.4016 182.727 31.2331 159.799 73.4779 172.59C106.244 182.508 112.849 209.008 146.892 212.041C182.173 215.194 201.809 181.53 245.171 173.707C269.756 169.257 281.729 182.767 299.189 175.144C325.41 163.69 329.501 130.066 347.76 87.2821C361.13 55.9128 370.189 18.6967 390.903 -11.9941" stroke="#4D04FF" stroke-opacity="0.2" stroke-width="0.5" stroke-miterlimit="10"/>
<path d="M-94.7217 244.427C-23.9013 183.165 31.5737 160.855 73.4593 173.607C106.245 183.584 112.89 210.184 146.814 213.078C182.294 216.111 201.69 181.768 245.332 173.886C270.116 169.396 282.049 183.265 299.61 175.602C325.851 164.148 329.602 130.205 347.941 87.0418C361.211 55.8122 370.59 18.6559 391.822 -12.2345" stroke="#4D04FF" stroke-opacity="0.2" stroke-width="0.5" stroke-miterlimit="10"/>
<path d="M-94.7617 245.125C-23.4225 183.584 31.9128 161.892 73.4393 174.624C106.225 184.681 112.95 211.361 146.734 214.095C182.414 216.988 201.59 181.987 245.511 174.045C270.495 169.515 282.388 183.723 300.029 176.041C326.289 164.566 329.702 130.324 348.12 86.8017C361.271 55.7117 370.969 18.6153 392.74 -12.4746" stroke="#4D04FF" stroke-opacity="0.2" stroke-width="0.5" stroke-miterlimit="10"/>
<path d="M-94.8027 245.801C-22.9447 184.02 32.2509 162.947 73.4182 175.639C106.204 185.756 112.989 212.536 146.653 215.13C182.532 217.904 201.47 182.204 245.67 174.222C270.853 169.652 282.707 184.219 300.427 176.497C326.707 165.023 329.78 130.481 348.299 86.5595C361.349 55.6092 371.347 18.5727 393.656 -12.7168" stroke="#4D04FF" stroke-opacity="0.2" stroke-width="0.5" stroke-miterlimit="10"/>
<path d="M-94.8223 246.501C-22.4454 184.441 32.5906 163.987 73.3986 176.678C106.205 186.875 113.029 213.715 146.574 216.189C182.652 218.843 201.37 182.465 245.83 174.423C271.233 169.814 283.026 184.74 300.826 176.978C327.127 165.503 329.861 130.642 348.459 86.3618C361.39 55.5512 371.706 18.5746 394.555 -12.8945" stroke="#4D04FF" stroke-opacity="0.2" stroke-width="0.5" stroke-miterlimit="10"/>
<path d="M-94.8613 247.181C-21.9656 184.881 32.9107 165.046 73.3596 177.697C106.166 187.974 113.05 214.893 146.475 217.208C182.753 219.722 201.231 182.686 245.971 174.604C271.573 169.975 283.306 185.22 301.206 177.438C327.527 165.964 329.941 130.783 348.619 86.1235C361.45 55.4526 372.066 18.5558 395.454 -13.1328" stroke="#4D04FF" stroke-opacity="0.2" stroke-width="0.5" stroke-miterlimit="10"/>
<path d="M-94.8818 247.858C-21.4872 185.299 33.2494 166.082 73.3391 178.714C106.165 189.05 113.089 216.069 146.394 218.245C182.872 220.639 201.131 182.924 246.13 174.783C271.932 170.113 283.625 185.718 301.605 177.895C327.945 166.401 330.021 130.921 348.778 85.9028C361.49 55.3716 372.445 18.5346 396.351 -13.3535" stroke="#4D04FF" stroke-opacity="0.2" stroke-width="0.5" stroke-miterlimit="10"/>
<path d="M-94.9219 248.559C-20.9885 185.741 33.5885 167.142 73.319 179.754C106.145 190.171 113.129 217.25 146.314 219.305C182.992 221.56 201.031 183.186 246.309 174.985C272.311 170.275 283.964 186.239 302.024 178.377C328.364 166.883 330.12 131.084 348.958 85.686C361.569 55.2945 372.824 18.5174 397.249 -13.5703" stroke="#4D04FF" stroke-opacity="0.2" stroke-width="0.5" stroke-miterlimit="10"/>
<path d="M-94.9609 249.236C-20.5087 186.158 33.9286 168.179 73.2999 180.751C106.146 191.247 113.17 218.406 146.236 220.321C183.112 222.457 200.912 183.405 246.47 175.143C272.671 170.394 284.284 186.717 302.424 178.815C328.784 167.321 330.221 131.222 349.138 85.4453C361.65 55.1736 373.204 18.4763 398.168 -13.791" stroke="#4D04FF" stroke-opacity="0.2" stroke-width="0.5" stroke-miterlimit="10"/>
<path d="M-94.9814 249.912C-20.0304 186.575 34.2673 169.234 73.2794 181.785C106.125 192.342 113.209 219.58 146.155 221.356C183.232 223.352 200.812 183.641 246.629 175.32C273.029 170.531 284.603 187.193 302.822 179.271C329.203 167.777 330.3 131.359 349.297 85.2032C361.689 55.0711 373.563 18.4336 399.065 -14.0332" stroke="#4D04FF" stroke-opacity="0.2" stroke-width="0.5" stroke-miterlimit="10"/>
<path d="M-95.0215 250.612C-19.5316 187.015 34.6064 170.293 73.2593 182.804C106.105 193.44 113.249 220.759 146.075 222.395C183.351 224.251 200.692 183.862 246.788 175.501C273.388 170.672 284.922 187.693 303.221 179.711C329.622 168.197 330.4 131.48 349.457 84.9649C361.749 54.9725 373.922 18.3949 399.963 -14.2715" stroke="#4D04FF" stroke-opacity="0.2" stroke-width="0.5" stroke-miterlimit="10"/>
<path d="M-95.042 251.289C-19.0532 187.433 34.9451 171.329 73.2188 183.821C106.085 194.537 113.269 221.915 145.975 223.432C183.45 225.168 200.572 184.101 246.947 175.68C273.747 170.811 285.221 188.191 303.62 180.169C330.04 168.655 330.479 131.639 349.636 84.7245C361.828 54.8718 374.32 18.3541 400.88 -14.5118" stroke="#4D04FF" stroke-opacity="0.2" stroke-width="0.5" stroke-miterlimit="10"/>
<path d="M-95.0811 251.969C-18.5735 187.853 35.2852 172.388 73.1997 184.84C106.066 195.635 113.309 223.094 145.896 224.451C183.571 226.047 200.453 184.321 247.108 175.86C274.107 170.951 285.541 188.671 304.02 180.629C330.46 169.115 330.58 131.779 349.796 84.5059C361.869 54.7929 374.68 18.335 401.779 -14.7305" stroke="#4D04FF" stroke-opacity="0.2" stroke-width="0.5" stroke-miterlimit="10"/>
<path d="M-95.1211 252.667C-18.0947 188.292 35.6043 173.446 73.1796 185.878C106.046 196.753 113.349 224.271 145.816 225.509C183.691 226.965 200.353 184.581 247.267 176.06C274.486 171.111 285.86 189.19 304.418 181.109C330.879 169.575 330.679 131.939 349.976 84.2867C361.949 54.7134 375.059 18.3154 402.697 -14.9297" stroke="#4D04FF" stroke-opacity="0.2" stroke-width="0.5" stroke-miterlimit="10"/>
<path d="M-95.1416 253.346C-17.5963 188.712 35.943 174.504 73.1591 186.896C106.045 197.852 113.388 225.429 145.736 226.547C183.81 227.844 200.233 184.821 247.426 176.24C274.845 171.252 286.179 189.69 304.837 181.568C331.297 170.034 330.779 132.1 350.155 84.068C362.028 54.6343 375.438 18.2962 403.614 -15.1484" stroke="#4D04FF" stroke-opacity="0.2" stroke-width="0.5" stroke-miterlimit="10"/>
<path d="M-95.1807 254.023C-17.1166 189.129 36.2831 175.54 73.14 187.892C106.026 198.927 113.429 226.565 145.657 227.543C183.93 228.7 200.134 185.018 247.607 176.378C275.225 171.349 286.519 190.147 305.257 181.985C331.737 170.451 330.899 132.198 350.335 83.7866C362.109 54.4926 375.838 18.2144 404.533 -15.4298" stroke="#4D04FF" stroke-opacity="0.2" stroke-width="0.5" stroke-miterlimit="10"/>
<path d="M-95.2227 254.724C-16.6398 189.571 36.6202 176.6 73.118 188.932C106.004 200.047 113.467 227.765 145.575 228.603C184.048 229.62 200.032 185.28 247.764 176.58C275.582 171.511 286.836 190.648 305.654 182.467C332.154 170.933 330.997 132.379 350.513 83.5895C362.167 54.4352 376.215 18.2168 405.429 -15.627" stroke="#4D04FF" stroke-opacity="0.2" stroke-width="0.5" stroke-miterlimit="10"/>
<path d="M-95.2412 255.401C-16.1395 190.008 36.9409 177.656 73.0994 189.949C105.985 201.143 113.508 228.921 145.496 229.639C184.169 230.517 199.914 185.499 247.925 176.758C275.942 171.65 287.157 191.146 306.054 182.924C332.575 171.39 331.098 132.518 350.674 83.3488C362.228 54.3342 376.576 18.1757 406.328 -15.8477" stroke="#4D04FF" stroke-opacity="0.2" stroke-width="0.5" stroke-miterlimit="10"/>
<path d="M-95.2803 256.098C-15.6597 190.446 37.281 178.733 73.0604 190.985C105.966 202.26 113.529 230.097 145.397 230.676C184.27 231.394 199.795 185.737 248.066 176.937C276.282 171.788 287.437 191.644 306.434 183.382C332.975 171.848 331.179 132.676 350.814 83.1281C362.269 54.2532 376.916 18.1545 407.207 -16.0684" stroke="#4D04FF" stroke-opacity="0.2" stroke-width="0.5" stroke-miterlimit="10"/>
<path d="M-95.2988 256.778C-15.1594 190.866 37.6216 179.771 73.0618 192.004C105.968 203.358 113.59 232.193 145.339 231.714C184.411 231.115 199.696 185.977 248.267 177.137C276.683 171.949 287.798 192.143 306.875 183.862C333.435 172.308 331.32 132.837 351.035 82.9094C362.39 54.1741 377.336 18.1353 408.167 -16.2871" stroke="#4D04FF" stroke-opacity="0.2" stroke-width="0.5" stroke-miterlimit="10"/>
<path d="M-95.3418 257.457C-14.6836 191.286 37.9378 180.83 73.0188 193.002C105.925 204.437 113.627 233.272 145.236 232.733C184.508 232.074 199.574 186.198 248.404 177.298C277.019 172.07 288.094 192.623 307.251 184.302C333.811 172.748 331.396 132.978 351.172 82.6711C362.427 54.0755 377.692 18.0966 409.041 -16.5254" stroke="#4D04FF" stroke-opacity="0.2" stroke-width="0.5" stroke-miterlimit="10"/>
<path d="M-95.3809 258.156C-14.2038 191.726 38.2779 181.888 72.9997 194.04C105.925 205.554 113.668 234.37 145.157 233.791C184.608 233.053 199.455 186.458 248.564 177.498C277.399 172.23 288.414 193.142 307.651 184.781C334.231 173.227 331.497 133.138 351.332 82.4519C362.467 53.996 378.052 18.077 409.94 -16.7246" stroke="#4D04FF" stroke-opacity="0.2" stroke-width="0.5" stroke-miterlimit="10"/>
<path d="M-95.4004 258.836C-13.7244 192.146 38.6176 182.947 72.9802 195.059C105.906 206.673 113.708 235.448 145.078 234.81C184.728 233.992 199.355 186.678 248.724 177.659C277.759 172.35 288.734 193.603 308.05 185.221C334.651 173.668 331.597 133.279 351.513 82.2136C362.548 53.8974 378.432 18.0382 410.859 -16.9629" stroke="#4D04FF" stroke-opacity="0.2" stroke-width="0.5" stroke-miterlimit="10"/>
<path d="M-95.4404 259.511C-13.2257 192.562 38.9367 184.001 72.9601 196.074C105.886 207.768 113.748 236.523 144.998 235.845C184.848 234.967 199.235 186.915 248.884 177.835C278.118 172.487 289.053 194.099 308.449 185.678C335.069 174.104 331.717 133.415 351.672 81.9714C362.607 53.7949 378.791 17.9956 411.757 -17.2051" stroke="#4D04FF" stroke-opacity="0.2" stroke-width="0.5" stroke-miterlimit="10"/>
<path d="M-95.459 260.212C-12.7454 193.004 39.2774 185.062 72.9415 197.095C105.867 208.868 113.769 237.623 144.919 236.885C184.969 235.947 199.137 187.137 249.065 178.018C278.498 172.63 289.374 194.6 308.87 186.139C335.51 174.565 331.838 133.578 351.873 81.7546C362.708 53.7178 379.191 17.9783 412.696 -17.4219" stroke="#4D04FF" stroke-opacity="0.2" stroke-width="0.5" stroke-miterlimit="10"/>
<path d="M-95.501 260.89C-12.2686 193.422 39.6145 186.119 72.8995 198.132C105.825 210.005 113.787 238.201 144.817 237.922C185.067 237.563 199.015 187.376 249.202 178.197C278.835 172.769 289.671 195.098 309.247 186.598C335.907 175.024 331.936 133.737 352.011 81.5144C362.746 53.6173 379.548 17.9377 413.572 -17.6621" stroke="#4D04FF" stroke-opacity="0.2" stroke-width="0.5" stroke-miterlimit="10"/>
<path d="M-95.541 261.568C-11.7897 193.84 39.9337 187.175 72.8795 199.128C105.805 211.081 113.827 239.338 144.738 238.939C185.186 238.42 198.896 187.594 249.362 178.355C279.195 172.887 289.99 195.556 309.646 187.036C336.306 175.462 332.035 133.855 352.17 81.2739C362.806 53.5164 379.908 17.8967 414.45 -17.8827" stroke="#4D04FF" stroke-opacity="0.2" stroke-width="0.5" stroke-miterlimit="10"/>
<path d="M-95.5615 262.266C-11.2914 194.28 40.2724 188.253 72.8589 200.166C105.785 212.219 113.867 240.515 144.657 239.996C185.306 239.298 198.795 187.854 249.521 178.575C279.553 173.067 290.309 196.095 310.044 187.535C336.724 175.941 332.155 134.055 352.349 81.0746C362.885 53.4569 380.286 17.897 415.367 -18.0819" stroke="#4D04FF" stroke-opacity="0.2" stroke-width="0.5" stroke-miterlimit="10"/>
<path d="M-95.6006 262.946C-10.8117 194.7 40.5925 189.312 72.8398 201.185C105.766 213.318 113.887 241.674 144.578 241.016C185.426 240.158 198.676 188.075 249.701 178.736C279.933 173.208 290.649 196.576 310.484 187.955C337.184 176.361 332.295 134.176 352.55 80.8167C362.986 53.3386 380.686 17.8386 416.306 -18.3398" stroke="#4D04FF" stroke-opacity="0.2" stroke-width="0.5" stroke-miterlimit="10"/>
<path d="M-95.6406 263.624C-10.3329 195.138 40.9117 190.409 72.7998 202.202C105.706 214.495 113.907 242.811 144.478 242.053C185.506 241.035 198.556 188.314 249.841 178.915C280.272 173.347 290.948 197.054 310.863 188.413C337.583 176.82 332.475 134.355 352.689 80.5765C363.066 53.2381 381.025 17.7979 417.184 -18.5801" stroke="#4D04FF" stroke-opacity="0.2" stroke-width="0.5" stroke-miterlimit="10"/>
<path d="M-95.6602 264.322C-9.83357 195.577 41.2513 191.466 72.8002 203.24C105.726 215.592 113.967 243.948 144.419 243.11C185.646 241.853 198.457 188.553 250.021 179.114C280.672 173.507 291.288 197.573 311.283 188.892C338.023 177.298 332.575 134.515 352.889 80.3768C363.146 53.1781 381.445 17.7979 418.122 -18.7598" stroke="#4D04FF" stroke-opacity="0.2" stroke-width="0.5" stroke-miterlimit="10"/>
<path d="M-95.7002 265C-9.35477 195.996 41.5904 192.483 72.7602 204.257C105.686 216.669 113.987 245.145 144.319 244.127C185.746 242.77 198.337 188.772 250.16 179.273C281.011 173.626 291.567 198.051 311.662 189.331C338.421 177.717 332.635 134.634 353.029 80.1366C363.166 53.0776 381.784 17.7572 419 -19" stroke="#4D04FF" stroke-opacity="0.2" stroke-width="0.5" stroke-miterlimit="10"/>
</svg>
