<svg width="15" height="17" viewBox="0 0 15 17" fill="none" xmlns="http://www.w3.org/2000/svg">
<path d="M5.25911 15.6905C4.59725 12.4527 2.46856 9.94436 0 9.07266C2.46856 8.21875 4.59725 5.69259 5.25911 2.45483C5.92097 5.69259 8.04966 8.21875 10.5182 9.07266C8.03178 9.94436 5.90309 12.4527 5.25911 15.6905Z" fill="white"/>
<path d="M11.6452 7.98764C11.2517 6.03076 9.96372 4.51862 8.479 4.00272C9.96372 3.46902 11.2517 1.95688 11.6452 0C12.0387 1.95688 13.3267 3.46902 14.8114 3.98493C13.3267 4.51862 12.0387 6.03076 11.6452 7.98764Z" fill="white"/>
<path d="M11.144 16.9003C10.822 15.3526 9.82027 14.1429 8.63965 13.7337C9.82027 13.3246 10.8399 12.1149 11.144 10.5671C11.466 12.1149 12.4677 13.3246 13.6483 13.7337C12.4677 14.1429 11.4481 15.3526 11.144 16.9003Z" fill="white"/>
</svg>
