<svg width="20" height="20" viewBox="0 0 20 20" fill="none" xmlns="http://www.w3.org/2000/svg">
<path d="M4.546 12.5001L0.833496 15.4167V2.50008C0.833496 2.27907 0.921293 2.06711 1.07757 1.91083C1.23385 1.75455 1.44582 1.66675 1.66683 1.66675H14.1668C14.3878 1.66675 14.5998 1.75455 14.7561 1.91083C14.9124 2.06711 15.0002 2.27907 15.0002 2.50008V12.5001H4.546ZM3.96933 10.8334H13.3335V3.33341H2.50016V11.9876L3.96933 10.8334ZM6.66683 14.1667H15.1977L16.6668 15.3209V6.66675H17.5002C17.7212 6.66675 17.9331 6.75455 18.0894 6.91083C18.2457 7.06711 18.3335 7.27907 18.3335 7.50008V18.7501L14.621 15.8334H7.50016C7.27915 15.8334 7.06719 15.7456 6.91091 15.5893C6.75463 15.4331 6.66683 15.2211 6.66683 15.0001V14.1667Z" fill="white"/>
</svg>
