<svg width="15" height="15" viewBox="0 0 15 15" fill="none" xmlns="http://www.w3.org/2000/svg">
<g clip-path="url(#clip0_3_5814)">
<path d="M4.03437 11.875L1.25 14.0625V2.5C1.25 2.33424 1.31585 2.17527 1.43306 2.05806C1.55027 1.94085 1.70924 1.875 1.875 1.875H13.125C13.2908 1.875 13.4497 1.94085 13.5669 2.05806C13.6842 2.17527 13.75 2.33424 13.75 2.5V11.25C13.75 11.4158 13.6842 11.5747 13.5669 11.6919C13.4497 11.8092 13.2908 11.875 13.125 11.875H4.03437ZM8.75 6.40625V5H4.375V8.75H8.75V7.34375L10.625 8.75V5L8.75 6.40625Z" fill="white"/>
</g>
<defs>
<clipPath id="clip0_3_5814">
<rect width="15" height="15" fill="white"/>
</clipPath>
</defs>
</svg>
