<svg width="30" height="30" viewBox="0 0 30 30" fill="none" xmlns="http://www.w3.org/2000/svg">
<g clip-path="url(#clip0_1_601)">
<path d="M2.5 27.5C2.5 24.8478 3.55357 22.3043 5.42893 20.4289C7.3043 18.5536 9.84784 17.5 12.5 17.5C15.1522 17.5 17.6957 18.5536 19.5711 20.4289C21.4464 22.3043 22.5 24.8478 22.5 27.5H2.5ZM12.5 16.25C8.35625 16.25 5 12.8938 5 8.75C5 4.60625 8.35625 1.25 12.5 1.25C16.6438 1.25 20 4.60625 20 8.75C20 12.8938 16.6438 16.25 12.5 16.25ZM21.7038 19.0413C23.6158 19.5327 25.3241 20.6148 26.5854 22.1335C27.8467 23.6523 28.5968 25.5302 28.7288 27.5H25C25 24.2375 23.75 21.2675 21.7038 19.0413ZM19.175 16.1962C20.2225 15.2593 21.0602 14.1117 21.6332 12.8284C22.2062 11.5452 22.5016 10.1554 22.5 8.75C22.5027 7.04183 22.0657 5.36171 21.2313 3.87125C22.647 4.15574 23.9206 4.92172 24.8356 6.039C25.7505 7.15627 26.2503 8.55591 26.25 10C26.2503 10.8906 26.0603 11.7709 25.6926 12.5821C25.325 13.3932 24.7882 14.1164 24.1182 14.7032C23.4482 15.2899 22.6606 15.7267 21.808 15.9842C20.9555 16.2417 20.0578 16.314 19.175 16.1962Z" fill="white"/>
</g>
<defs>
<clipPath id="clip0_1_601">
<rect width="30" height="30" fill="white"/>
</clipPath>
</defs>
</svg>
