<svg width="14" height="14" viewBox="0 0 14 14" fill="none" xmlns="http://www.w3.org/2000/svg">
<g clip-path="url(#clip0_3_5748)">
<path d="M1.16667 12.8333C1.16667 11.5956 1.65834 10.4086 2.53351 9.53342C3.40868 8.65825 4.59566 8.16658 5.83334 8.16658C7.07102 8.16658 8.258 8.65825 9.13317 9.53342C10.0083 10.4086 10.5 11.5956 10.5 12.8333H1.16667ZM5.83334 7.58325C3.89959 7.58325 2.33334 6.017 2.33334 4.08325C2.33334 2.1495 3.89959 0.583252 5.83334 0.583252C7.76709 0.583252 9.33334 2.1495 9.33334 4.08325C9.33334 6.017 7.76709 7.58325 5.83334 7.58325ZM10.1284 8.88583C11.0207 9.11517 11.8179 9.62016 12.4065 10.3289C12.9951 11.0376 13.3452 11.914 13.4068 12.8333H11.6667C11.6667 11.3108 11.0833 9.92475 10.1284 8.88583ZM8.94834 7.55817C9.43717 7.12095 9.82809 6.58536 10.0955 5.98652C10.3629 5.38768 10.5007 4.73909 10.5 4.08325C10.5012 3.28611 10.2973 2.50205 9.90792 1.8065C10.5686 1.93926 11.163 2.29672 11.5899 2.81812C12.0169 3.33951 12.2501 3.99268 12.25 4.66658C12.2502 5.08219 12.1615 5.49303 11.9899 5.87156C11.8183 6.2501 11.5678 6.58758 11.2552 6.8614C10.9425 7.13522 10.5749 7.33904 10.1771 7.45921C9.77924 7.57938 9.36029 7.61312 8.94834 7.55817Z" fill="white"/>
</g>
<defs>
<clipPath id="clip0_3_5748">
<rect width="14" height="14" fill="white"/>
</clipPath>
</defs>
</svg>
