<svg width="14" height="14" viewBox="0 0 14 14" fill="none" xmlns="http://www.w3.org/2000/svg">
<g clip-path="url(#clip0_67_177)">
<path d="M1.1665 12.8333C1.1665 11.5956 1.65817 10.4086 2.53334 9.53342C3.40851 8.65825 4.59549 8.16658 5.83317 8.16658C7.07085 8.16658 8.25783 8.65825 9.133 9.53342C10.0082 10.4086 10.4998 11.5956 10.4998 12.8333H1.1665ZM5.83317 7.58325C3.89942 7.58325 2.33317 6.017 2.33317 4.08325C2.33317 2.1495 3.89942 0.583252 5.83317 0.583252C7.76692 0.583252 9.33317 2.1495 9.33317 4.08325C9.33317 6.017 7.76692 7.58325 5.83317 7.58325ZM10.1283 8.88583C11.0205 9.11517 11.8177 9.62016 12.4064 10.3289C12.995 11.0376 13.345 11.914 13.4066 12.8333H11.6665C11.6665 11.3108 11.0832 9.92475 10.1283 8.88583ZM8.94817 7.55817C9.437 7.12095 9.82793 6.58536 10.0953 5.98652C10.3627 5.38768 10.5006 4.73909 10.4998 4.08325C10.5011 3.28611 10.2972 2.50205 9.90775 1.8065C10.5685 1.93926 11.1628 2.29672 11.5898 2.81812C12.0167 3.33951 12.25 3.99268 12.2498 4.66658C12.25 5.08219 12.1613 5.49303 11.9897 5.87156C11.8182 6.2501 11.5676 6.58758 11.255 6.8614C10.9423 7.13522 10.5748 7.33904 10.1769 7.45921C9.77907 7.57938 9.36013 7.61312 8.94817 7.55817Z" fill="white"/>
</g>
<defs>
<clipPath id="clip0_67_177">
<rect width="14" height="14" fill="white"/>
</clipPath>
</defs>
</svg>
