<svg width="34" height="34" viewBox="0 0 34 34" fill="none" xmlns="http://www.w3.org/2000/svg">
<g clip-path="url(#clip0_1_617)">
<path d="M17.5867 7.08333H29.7502C30.1259 7.08333 30.4862 7.23259 30.7519 7.49827C31.0176 7.76394 31.1668 8.12428 31.1668 8.5V28.3333C31.1668 28.7091 31.0176 29.0694 30.7519 29.3351C30.4862 29.6007 30.1259 29.75 29.7502 29.75H4.25016C3.87444 29.75 3.5141 29.6007 3.24843 29.3351C2.98275 29.0694 2.8335 28.7091 2.8335 28.3333V5.66667C2.8335 5.29094 2.98275 4.93061 3.24843 4.66493C3.5141 4.39926 3.87444 4.25 4.25016 4.25H14.7533L17.5867 7.08333ZM17.0002 18.4167C17.9395 18.4167 18.8403 18.0435 19.5045 17.3793C20.1687 16.7151 20.5418 15.8143 20.5418 14.875C20.5418 13.9357 20.1687 13.0349 19.5045 12.3707C18.8403 11.7065 17.9395 11.3333 17.0002 11.3333C16.0609 11.3333 15.16 11.7065 14.4958 12.3707C13.8316 13.0349 13.4585 13.9357 13.4585 14.875C13.4585 15.8143 13.8316 16.7151 14.4958 17.3793C15.16 18.0435 16.0609 18.4167 17.0002 18.4167ZM11.3335 25.5H22.6668C22.6668 23.9971 22.0698 22.5558 21.0071 21.4931C19.9444 20.4304 18.5031 19.8333 17.0002 19.8333C15.4973 19.8333 14.0559 20.4304 12.9932 21.4931C11.9305 22.5558 11.3335 23.9971 11.3335 25.5Z" fill="white"/>
</g>
<defs>
<clipPath id="clip0_1_617">
<rect width="34" height="34" fill="white"/>
</clipPath>
</defs>
</svg>
