<svg width="16" height="16" viewBox="0 0 16 16" fill="none" xmlns="http://www.w3.org/2000/svg">
<g clip-path="url(#clip0_3_5627)">
<path d="M8.27592 3.33333H13.9999C14.1767 3.33333 14.3463 3.40357 14.4713 3.5286C14.5963 3.65362 14.6666 3.82319 14.6666 4V13.3333C14.6666 13.5101 14.5963 13.6797 14.4713 13.8047C14.3463 13.9298 14.1767 14 13.9999 14H1.99992C1.82311 14 1.65354 13.9298 1.52851 13.8047C1.40349 13.6797 1.33325 13.5101 1.33325 13.3333V2.66667C1.33325 2.48986 1.40349 2.32029 1.52851 2.19526C1.65354 2.07024 1.82311 2 1.99992 2H6.94258L8.27592 3.33333ZM7.99992 8.66667C8.44195 8.66667 8.86587 8.49107 9.17843 8.17851C9.49099 7.86595 9.66659 7.44203 9.66659 7C9.66659 6.55797 9.49099 6.13405 9.17843 5.82149C8.86587 5.50893 8.44195 5.33333 7.99992 5.33333C7.55789 5.33333 7.13397 5.50893 6.82141 5.82149C6.50885 6.13405 6.33325 6.55797 6.33325 7C6.33325 7.44203 6.50885 7.86595 6.82141 8.17851C7.13397 8.49107 7.55789 8.66667 7.99992 8.66667ZM5.33325 12H10.6666C10.6666 11.2928 10.3856 10.6145 9.88554 10.1144C9.38544 9.61428 8.70716 9.33333 7.99992 9.33333C7.29268 9.33333 6.6144 9.61428 6.1143 10.1144C5.6142 10.6145 5.33325 11.2928 5.33325 12Z" fill="white"/>
</g>
<defs>
<clipPath id="clip0_3_5627">
<rect width="16" height="16" fill="white"/>
</clipPath>
</defs>
</svg>
