<svg width="32" height="32" viewBox="0 0 32 32" fill="none" xmlns="http://www.w3.org/2000/svg">
<g clip-path="url(#clip0_1_609)">
<path d="M19.9998 4C20.7358 4 21.3332 4.59733 21.3332 5.33333V8H27.9998C28.7358 8 29.3332 8.59733 29.3332 9.33333V26.6667C29.3332 27.4027 28.7358 28 27.9998 28H3.99984C3.26384 28 2.6665 27.4027 2.6665 26.6667V9.33333C2.6665 8.59733 3.26384 8 3.99984 8H10.6665V5.33333C10.6665 4.59733 11.2638 4 11.9998 4H19.9998ZM10.6665 10.6667H7.99984V25.3333H10.6665V10.6667ZM23.9998 10.6667H21.3332V25.3333H23.9998V10.6667ZM18.6665 6.66667H13.3332V8H18.6665V6.66667Z" fill="white"/>
</g>
<defs>
<clipPath id="clip0_1_609">
<rect width="32" height="32" fill="white"/>
</clipPath>
</defs>
</svg>
