<svg width="14" height="14" viewBox="0 0 14 14" fill="none" xmlns="http://www.w3.org/2000/svg">
<g clip-path="url(#clip0_3_5616)">
<path d="M1.16675 12.8333C1.16675 11.5956 1.65841 10.4086 2.53358 9.53342C3.40875 8.65825 4.59574 8.16658 5.83341 8.16658C7.07109 8.16658 8.25808 8.65825 9.13325 9.53342C10.0084 10.4086 10.5001 11.5956 10.5001 12.8333H1.16675ZM5.83341 7.58325C3.89966 7.58325 2.33341 6.017 2.33341 4.08325C2.33341 2.1495 3.89966 0.583252 5.83341 0.583252C7.76716 0.583252 9.33341 2.1495 9.33341 4.08325C9.33341 6.017 7.76716 7.58325 5.83341 7.58325ZM10.1285 8.88583C11.0208 9.11517 11.818 9.62016 12.4066 10.3289C12.9952 11.0376 13.3452 11.914 13.4068 12.8333H11.6667C11.6667 11.3108 11.0834 9.92475 10.1285 8.88583ZM8.94841 7.55817C9.43725 7.12095 9.82817 6.58536 10.0956 5.98652C10.363 5.38768 10.5008 4.73909 10.5001 4.08325C10.5013 3.28611 10.2974 2.50205 9.908 1.8065C10.5687 1.93926 11.163 2.29672 11.59 2.81812C12.017 3.33951 12.2502 3.99268 12.2501 4.66658C12.2502 5.08219 12.1616 5.49303 11.99 5.87156C11.8184 6.2501 11.5679 6.58758 11.2552 6.8614C10.9426 7.13522 10.575 7.33904 10.1772 7.45921C9.77931 7.57938 9.36037 7.61312 8.94841 7.55817Z" fill="white"/>
</g>
<defs>
<clipPath id="clip0_3_5616">
<rect width="14" height="14" fill="white"/>
</clipPath>
</defs>
</svg>
