<svg width="14" height="14" viewBox="0 0 14 14" fill="none" xmlns="http://www.w3.org/2000/svg">
<g clip-path="url(#clip0_1_1968)">
<path d="M1.16663 12.8333C1.16663 11.5956 1.65829 10.4086 2.53346 9.53342C3.40863 8.65825 4.59562 8.16658 5.83329 8.16658C7.07097 8.16658 8.25795 8.65825 9.13312 9.53342C10.0083 10.4086 10.5 11.5956 10.5 12.8333H1.16663ZM5.83329 7.58325C3.89954 7.58325 2.33329 6.017 2.33329 4.08325C2.33329 2.1495 3.89954 0.583252 5.83329 0.583252C7.76704 0.583252 9.33329 2.1495 9.33329 4.08325C9.33329 6.017 7.76704 7.58325 5.83329 7.58325ZM10.1284 8.88583C11.0207 9.11517 11.8179 9.62016 12.4065 10.3289C12.9951 11.0376 13.3451 11.914 13.4067 12.8333H11.6666C11.6666 11.3108 11.0833 9.92475 10.1284 8.88583ZM8.94829 7.55817C9.43712 7.12095 9.82805 6.58536 10.0955 5.98652C10.3629 5.38768 10.5007 4.73909 10.5 4.08325C10.5012 3.28611 10.2973 2.50205 9.90788 1.8065C10.5686 1.93926 11.1629 2.29672 11.5899 2.81812C12.0169 3.33951 12.2501 3.99268 12.25 4.66658C12.2501 5.08219 12.1614 5.49303 11.9899 5.87156C11.8183 6.2501 11.5678 6.58758 11.2551 6.8614C10.9425 7.13522 10.5749 7.33904 10.177 7.45921C9.77919 7.57938 9.36025 7.61312 8.94829 7.55817Z" fill="white"/>
</g>
<defs>
<clipPath id="clip0_1_1968">
<rect width="14" height="14" fill="white"/>
</clipPath>
</defs>
</svg>
