<svg width="16" height="16" viewBox="0 0 16 16" fill="none" xmlns="http://www.w3.org/2000/svg">
<g clip-path="url(#clip0_3_5759)">
<path d="M8.27599 3.33333H14C14.1768 3.33333 14.3464 3.40357 14.4714 3.5286C14.5964 3.65362 14.6667 3.82319 14.6667 4V13.3333C14.6667 13.5101 14.5964 13.6797 14.4714 13.8047C14.3464 13.9298 14.1768 14 14 14H1.99999C1.82318 14 1.65361 13.9298 1.52859 13.8047C1.40357 13.6797 1.33333 13.5101 1.33333 13.3333V2.66667C1.33333 2.48986 1.40357 2.32029 1.52859 2.19526C1.65361 2.07024 1.82318 2 1.99999 2H6.94266L8.27599 3.33333ZM8 8.66667C8.44202 8.66667 8.86595 8.49107 9.17851 8.17851C9.49107 7.86595 9.66666 7.44203 9.66666 7C9.66666 6.55797 9.49107 6.13405 9.17851 5.82149C8.86595 5.50893 8.44202 5.33333 8 5.33333C7.55797 5.33333 7.13404 5.50893 6.82148 5.82149C6.50892 6.13405 6.33333 6.55797 6.33333 7C6.33333 7.44203 6.50892 7.86595 6.82148 8.17851C7.13404 8.49107 7.55797 8.66667 8 8.66667ZM5.33333 12H10.6667C10.6667 11.2928 10.3857 10.6145 9.88561 10.1144C9.38552 9.61428 8.70724 9.33333 8 9.33333C7.29275 9.33333 6.61447 9.61428 6.11438 10.1144C5.61428 10.6145 5.33333 11.2928 5.33333 12Z" fill="white"/>
</g>
<defs>
<clipPath id="clip0_3_5759">
<rect width="16" height="16" fill="white"/>
</clipPath>
</defs>
</svg>
