<svg width="16" height="16" viewBox="0 0 16 16" fill="none" xmlns="http://www.w3.org/2000/svg">
<g clip-path="url(#clip0_3_5698)">
<path d="M8.27604 3.33333H14C14.1769 3.33333 14.3464 3.40357 14.4714 3.5286C14.5965 3.65362 14.6667 3.82319 14.6667 4V13.3333C14.6667 13.5101 14.5965 13.6797 14.4714 13.8047C14.3464 13.9298 14.1769 14 14 14H2.00004C1.82323 14 1.65366 13.9298 1.52864 13.8047C1.40361 13.6797 1.33337 13.5101 1.33337 13.3333V2.66667C1.33337 2.48986 1.40361 2.32029 1.52864 2.19526C1.65366 2.07024 1.82323 2 2.00004 2H6.94271L8.27604 3.33333ZM8.00004 8.66667C8.44207 8.66667 8.86599 8.49107 9.17855 8.17851C9.49111 7.86595 9.66671 7.44203 9.66671 7C9.66671 6.55797 9.49111 6.13405 9.17855 5.82149C8.86599 5.50893 8.44207 5.33333 8.00004 5.33333C7.55801 5.33333 7.13409 5.50893 6.82153 5.82149C6.50897 6.13405 6.33337 6.55797 6.33337 7C6.33337 7.44203 6.50897 7.86595 6.82153 8.17851C7.13409 8.49107 7.55801 8.66667 8.00004 8.66667ZM5.33337 12H10.6667C10.6667 11.2928 10.3858 10.6145 9.88566 10.1144C9.38556 9.61428 8.70728 9.33333 8.00004 9.33333C7.2928 9.33333 6.61452 9.61428 6.11442 10.1144C5.61433 10.6145 5.33337 11.2928 5.33337 12Z" fill="white"/>
</g>
<defs>
<clipPath id="clip0_3_5698">
<rect width="16" height="16" fill="white"/>
</clipPath>
</defs>
</svg>
