<svg width="16" height="16" viewBox="0 0 16 16" fill="none" xmlns="http://www.w3.org/2000/svg">
<g clip-path="url(#clip0_67_194)">
<path d="M8.27616 3.33333H14.0002C14.177 3.33333 14.3465 3.40357 14.4716 3.5286C14.5966 3.65362 14.6668 3.82319 14.6668 4V13.3333C14.6668 13.5101 14.5966 13.6797 14.4716 13.8047C14.3465 13.9298 14.177 14 14.0002 14H2.00016C1.82335 14 1.65378 13.9298 1.52876 13.8047C1.40373 13.6797 1.3335 13.5101 1.3335 13.3333V2.66667C1.3335 2.48986 1.40373 2.32029 1.52876 2.19526C1.65378 2.07024 1.82335 2 2.00016 2H6.94283L8.27616 3.33333ZM8.00016 8.66667C8.44219 8.66667 8.86611 8.49107 9.17867 8.17851C9.49123 7.86595 9.66683 7.44203 9.66683 7C9.66683 6.55797 9.49123 6.13405 9.17867 5.82149C8.86611 5.50893 8.44219 5.33333 8.00016 5.33333C7.55814 5.33333 7.13421 5.50893 6.82165 5.82149C6.50909 6.13405 6.3335 6.55797 6.3335 7C6.3335 7.44203 6.50909 7.86595 6.82165 8.17851C7.13421 8.49107 7.55814 8.66667 8.00016 8.66667ZM5.3335 12H10.6668C10.6668 11.2928 10.3859 10.6145 9.88578 10.1144C9.38568 9.61428 8.70741 9.33333 8.00016 9.33333C7.29292 9.33333 6.61464 9.61428 6.11454 10.1144C5.61445 10.6145 5.3335 11.2928 5.3335 12Z" fill="white"/>
</g>
<defs>
<clipPath id="clip0_67_194">
<rect width="16" height="16" fill="white"/>
</clipPath>
</defs>
</svg>
