<svg width="14" height="14" viewBox="0 0 14 14" fill="none" xmlns="http://www.w3.org/2000/svg">
<g clip-path="url(#clip0_1_1563)">
<path d="M1.16675 12.8333C1.16675 11.5956 1.65841 10.4086 2.53358 9.53342C3.40875 8.65825 4.59574 8.16658 5.83341 8.16658C7.07109 8.16658 8.25808 8.65825 9.13325 9.53342C10.0084 10.4086 10.5001 11.5956 10.5001 12.8333H1.16675ZM5.83341 7.58325C3.89966 7.58325 2.33341 6.017 2.33341 4.08325C2.33341 2.1495 3.89966 0.583252 5.83341 0.583252C7.76716 0.583252 9.33341 2.1495 9.33341 4.08325C9.33341 6.017 7.76716 7.58325 5.83341 7.58325ZM11.6667 9.91658H14.0001V11.0833H11.6667V9.91658ZM9.91675 6.99992H14.0001V8.16658H9.91675V6.99992ZM11.0834 4.08325H14.0001V5.24992H11.0834V4.08325Z" fill="#A6A6A6"/>
</g>
<defs>
<clipPath id="clip0_1_1563">
<rect width="14" height="14" fill="white"/>
</clipPath>
</defs>
</svg>
