<svg width="20" height="20" viewBox="0 0 20 20" fill="none" xmlns="http://www.w3.org/2000/svg">
<g clip-path="url(#clip0_1_2452)">
<path d="M17.5 17.5H2.50001C2.27899 17.5 2.06703 17.4122 1.91075 17.2559C1.75447 17.0996 1.66667 16.8877 1.66667 16.6667V10.4058C1.66666 10.2868 1.69216 10.1691 1.74147 10.0607C1.79078 9.95229 1.86274 9.85573 1.95251 9.7775L5.00001 7.12V3.33333C5.00001 3.11232 5.0878 2.90036 5.24408 2.74408C5.40036 2.5878 5.61232 2.5 5.83334 2.5H17.5C17.721 2.5 17.933 2.5878 18.0893 2.74408C18.2455 2.90036 18.3333 3.11232 18.3333 3.33333V16.6667C18.3333 16.8877 18.2455 17.0996 18.0893 17.2559C17.933 17.4122 17.721 17.5 17.5 17.5ZM7.50001 15.8333H10V10.785L6.66667 7.87833L3.33334 10.785V15.8333H5.83334V12.5H7.50001V15.8333ZM11.6667 15.8333H16.6667V4.16667H6.66667V5.93917C6.86167 5.93917 7.05751 6.0075 7.21417 6.145L11.3808 9.7775C11.4706 9.85573 11.5426 9.95229 11.5919 10.0607C11.6412 10.1691 11.6667 10.2868 11.6667 10.4058V15.8333ZM13.3333 9.16667H15V10.8333H13.3333V9.16667ZM13.3333 12.5H15V14.1667H13.3333V12.5ZM13.3333 5.83333H15V7.5H13.3333V5.83333ZM10 5.83333H11.6667V7.5H10V5.83333Z" fill="white"/>
</g>
<defs>
<clipPath id="clip0_1_2452">
<rect width="20" height="20" fill="white"/>
</clipPath>
</defs>
</svg>
