<svg width="20" height="20" viewBox="0 0 20 20" fill="none" xmlns="http://www.w3.org/2000/svg">
<g clip-path="url(#clip0_1_1196)">
<path d="M4.16667 8.33337C3.25 8.33337 2.5 9.08337 2.5 10C2.5 10.9167 3.25 11.6667 4.16667 11.6667C5.08333 11.6667 5.83333 10.9167 5.83333 10C5.83333 9.08337 5.08333 8.33337 4.16667 8.33337ZM15.8333 8.33337C14.9167 8.33337 14.1667 9.08337 14.1667 10C14.1667 10.9167 14.9167 11.6667 15.8333 11.6667C16.75 11.6667 17.5 10.9167 17.5 10C17.5 9.08337 16.75 8.33337 15.8333 8.33337ZM10 8.33337C9.08333 8.33337 8.33333 9.08337 8.33333 10C8.33333 10.9167 9.08333 11.6667 10 11.6667C10.9167 11.6667 11.6667 10.9167 11.6667 10C11.6667 9.08337 10.9167 8.33337 10 8.33337Z" fill="white"/>
</g>
<defs>
<clipPath id="clip0_1_1196">
<rect width="20" height="20" fill="white"/>
</clipPath>
</defs>
</svg>
