<svg width="70" height="50" viewBox="0 0 70 50" fill="none" xmlns="http://www.w3.org/2000/svg">
<rect x="20" y="10" width="30" height="30" rx="15" fill="#292929"/>
<g clip-path="url(#clip0_3_5739)">
<path d="M37 19C37.368 19 37.6667 19.2987 37.6667 19.6667V21H41C41.368 21 41.6667 21.2987 41.6667 21.6667V30.3333C41.6667 30.7013 41.368 31 41 31H29C28.632 31 28.3333 30.7013 28.3333 30.3333V21.6667C28.3333 21.2987 28.632 21 29 21H32.3333V19.6667C32.3333 19.2987 32.632 19 33 19H37ZM32.3333 22.3333H31V29.6667H32.3333V22.3333ZM39 22.3333H37.6667V29.6667H39V22.3333ZM36.3333 20.3333H33.6667V21H36.3333V20.3333Z" fill="white"/>
</g>
<defs>
<clipPath id="clip0_3_5739">
<rect width="16" height="16" fill="white" transform="translate(27 17)"/>
</clipPath>
</defs>
</svg>
