<svg width="70" height="50" viewBox="0 0 70 50" fill="none" xmlns="http://www.w3.org/2000/svg">
<rect x="20" y="10" width="30" height="30" rx="15" fill="url(#paint0_linear_67_165)"/>
<g clip-path="url(#clip0_67_165)">
<path d="M37.0002 19C37.3682 19 37.6668 19.2987 37.6668 19.6667V21H41.0002C41.3682 21 41.6668 21.2987 41.6668 21.6667V30.3333C41.6668 30.7013 41.3682 31 41.0002 31H29.0002C28.6322 31 28.3335 30.7013 28.3335 30.3333V21.6667C28.3335 21.2987 28.6322 21 29.0002 21H32.3335V19.6667C32.3335 19.2987 32.6322 19 33.0002 19H37.0002ZM32.3335 22.3333H31.0002V29.6667H32.3335V22.3333ZM39.0002 22.3333H37.6668V29.6667H39.0002V22.3333ZM36.3335 20.3333H33.6668V21H36.3335V20.3333Z" fill="white"/>
</g>
<defs>
<linearGradient id="paint0_linear_67_165" x1="20.7742" y1="40" x2="46.9239" y2="36.1486" gradientUnits="userSpaceOnUse">
<stop stop-color="#353535"/>
<stop offset="1" stop-color="#292929"/>
</linearGradient>
<clipPath id="clip0_67_165">
<rect width="16" height="16" fill="white" transform="translate(27 17)"/>
</clipPath>
</defs>
</svg>
