<svg width="14" height="14" viewBox="0 0 14 14" fill="none" xmlns="http://www.w3.org/2000/svg">
<g clip-path="url(#clip0_1_1976)">
<path d="M8.16671 8.31358V12.8333H2.33337C2.33319 12.1209 2.49608 11.418 2.80955 10.7784C3.12302 10.1388 3.57875 9.57938 4.14183 9.1431C4.70491 8.70683 5.36039 8.40525 6.05805 8.26146C6.7557 8.11768 7.47701 8.13551 8.16671 8.31358ZM7.00004 7.58325C5.06629 7.58325 3.50004 6.017 3.50004 4.08325C3.50004 2.1495 5.06629 0.583252 7.00004 0.583252C8.93379 0.583252 10.5 2.1495 10.5 4.08325C10.5 6.017 8.93379 7.58325 7.00004 7.58325ZM10.5 9.91658V8.16658H11.6667V9.91658H13.4167V11.0833H11.6667V12.8333H10.5V11.0833H8.75004V9.91658H10.5Z" fill="#A6A6A6"/>
</g>
<defs>
<clipPath id="clip0_1_1976">
<rect width="14" height="14" fill="white"/>
</clipPath>
</defs>
</svg>
