<svg width="20" height="20" viewBox="0 0 20 20" fill="none" xmlns="http://www.w3.org/2000/svg">
<g clip-path="url(#clip0_1_2458)">
<path d="M10.345 4.16667H17.5C17.721 4.16667 17.933 4.25446 18.0892 4.41074C18.2455 4.56702 18.3333 4.77899 18.3333 5V16.6667C18.3333 16.8877 18.2455 17.0996 18.0892 17.2559C17.933 17.4122 17.721 17.5 17.5 17.5H2.49999C2.27898 17.5 2.06701 17.4122 1.91073 17.2559C1.75445 17.0996 1.66666 16.8877 1.66666 16.6667V3.33333C1.66666 3.11232 1.75445 2.90036 1.91073 2.74408C2.06701 2.5878 2.27898 2.5 2.49999 2.5H8.67832L10.345 4.16667ZM9.99999 10.8333C10.5525 10.8333 11.0824 10.6138 11.4731 10.2231C11.8638 9.83244 12.0833 9.30253 12.0833 8.75C12.0833 8.19747 11.8638 7.66756 11.4731 7.27686C11.0824 6.88616 10.5525 6.66667 9.99999 6.66667C9.44746 6.66667 8.91755 6.88616 8.52685 7.27686C8.13615 7.66756 7.91666 8.19747 7.91666 8.75C7.91666 9.30253 8.13615 9.83244 8.52685 10.2231C8.91755 10.6138 9.44746 10.8333 9.99999 10.8333ZM6.66666 15H13.3333C13.3333 14.1159 12.9821 13.2681 12.357 12.643C11.7319 12.0179 10.884 11.6667 9.99999 11.6667C9.11594 11.6667 8.26809 12.0179 7.64297 12.643C7.01785 13.2681 6.66666 14.1159 6.66666 15Z" fill="white"/>
</g>
<defs>
<clipPath id="clip0_1_2458">
<rect width="20" height="20" fill="white"/>
</clipPath>
</defs>
</svg>
