<svg width="32" height="32" viewBox="0 0 32 32" fill="none" xmlns="http://www.w3.org/2000/svg">
<g clip-path="url(#clip0_1_2247)">
<path d="M8.5 20.5C7.675 20.5 7 21.175 7 22C7 22.825 7.675 23.5 8.5 23.5C9.325 23.5 10 22.825 10 22C10 21.175 9.325 20.5 8.5 20.5ZM23.5 20.5C22.675 20.5 22 21.175 22 22C22 22.825 22.675 23.5 23.5 23.5C24.325 23.5 25 22.825 25 22C25 21.175 24.325 20.5 23.5 20.5ZM16 20.5C15.175 20.5 14.5 21.175 14.5 22C14.5 22.825 15.175 23.5 16 23.5C16.825 23.5 17.5 22.825 17.5 22C17.5 21.175 16.825 20.5 16 20.5Z" fill="white"/>
</g>
<defs>
<clipPath id="clip0_1_2247">
<rect width="24" height="24" fill="white" transform="translate(4 4)"/>
</clipPath>
</defs>
</svg>
