<svg width="20" height="20" viewBox="0 0 20 20" fill="none" xmlns="http://www.w3.org/2000/svg">
<g clip-path="url(#clip0_1_1797)">
<path d="M4.55258 3.69426C6.06471 2.38397 7.99924 1.66396 10.0001 1.66676C14.6026 1.66676 18.3334 5.39759 18.3334 10.0001C18.3334 11.7801 17.7751 13.4301 16.8251 14.7834L14.1667 10.0001H16.6667C16.6669 8.69311 16.2828 7.41493 15.5623 6.32447C14.8418 5.23401 13.8167 4.37939 12.6144 3.86686C11.4121 3.35433 10.0857 3.20651 8.80005 3.44177C7.51441 3.67703 6.32629 4.28501 5.38341 5.19009L4.55258 3.69426ZM15.4476 16.3059C13.9354 17.6162 12.0009 18.3362 10.0001 18.3334C5.39758 18.3334 1.66675 14.6026 1.66675 10.0001C1.66675 8.22009 2.22508 6.57009 3.17508 5.21676L5.83342 10.0001H3.33341C3.33331 11.3071 3.71737 12.5853 4.43786 13.6757C5.15835 14.7662 6.18347 15.6208 7.38577 16.1333C8.58806 16.6458 9.91449 16.7937 11.2001 16.5584C12.4857 16.3231 13.6739 15.7152 14.6167 14.8101L15.4476 16.3059Z" fill="white"/>
</g>
<defs>
<clipPath id="clip0_1_1797">
<rect width="20" height="20" fill="white"/>
</clipPath>
</defs>
</svg>
