<svg width="17" height="17" viewBox="0 0 17 17" fill="none" xmlns="http://www.w3.org/2000/svg">
<g clip-path="url(#clip0_1_4099)">
<path d="M1.41659 6.37508H3.54159V14.8751H1.41659C1.22872 14.8751 1.04856 14.8005 0.915718 14.6676C0.78288 14.5348 0.708252 14.3546 0.708252 14.1667V7.08341C0.708252 6.89555 0.78288 6.71538 0.915718 6.58254C1.04856 6.44971 1.22872 6.37508 1.41659 6.37508ZM5.16579 5.4592L9.69913 0.925871C9.75938 0.865446 9.83942 0.828805 9.92453 0.822689C10.0096 0.816572 10.0941 0.84139 10.1624 0.892579L10.7666 1.34591C10.9344 1.47189 11.0611 1.64472 11.1308 1.84264C11.2006 2.04055 11.2101 2.25467 11.1583 2.458L10.3416 5.66675H14.8749C15.2506 5.66675 15.611 5.816 15.8767 6.08168C16.1423 6.34735 16.2916 6.70769 16.2916 7.08341V8.57375C16.2918 8.75888 16.2557 8.94225 16.1853 9.1135L13.993 14.4366C13.9396 14.5664 13.8487 14.6774 13.7321 14.7554C13.6154 14.8335 13.4782 14.8751 13.3378 14.8751H5.66659C5.47872 14.8751 5.29856 14.8005 5.16572 14.6676C5.03288 14.5348 4.95825 14.3546 4.95825 14.1667V5.96C4.95829 5.77215 5.03295 5.59201 5.16579 5.4592Z" fill="#FFCF70"/>
</g>
<defs>
<clipPath id="clip0_1_4099">
<rect width="17" height="17" fill="white"/>
</clipPath>
</defs>
</svg>
