<svg width="17" height="17" viewBox="0 0 17 17" fill="none" xmlns="http://www.w3.org/2000/svg">
<g clip-path="url(#clip0_1_1254)">
<path d="M1.41683 6.37502H3.54183V14.875H1.41683C1.22897 14.875 1.0488 14.8004 0.915962 14.6676C0.783124 14.5347 0.708496 14.3545 0.708496 14.1667V7.08335C0.708496 6.89549 0.783124 6.71532 0.915962 6.58248C1.0488 6.44965 1.22897 6.37502 1.41683 6.37502ZM5.16604 5.45914L9.69937 0.92581C9.75962 0.865385 9.83967 0.828744 9.92478 0.822628C10.0099 0.816511 10.0943 0.841329 10.1626 0.892518L10.7668 1.34585C10.9346 1.47182 11.0614 1.64466 11.1311 1.84257C11.2008 2.04048 11.2104 2.2546 11.1585 2.45793L10.3418 5.66668H14.8752C15.2509 5.66668 15.6112 5.81594 15.8769 6.08162C16.1426 6.34729 16.2918 6.70763 16.2918 7.08335V8.57368C16.292 8.75882 16.2559 8.94219 16.1856 9.11343L13.9933 14.4366C13.9398 14.5663 13.849 14.6773 13.7323 14.7554C13.6157 14.8334 13.4784 14.8751 13.3381 14.875H5.66683C5.47897 14.875 5.2988 14.8004 5.16596 14.6676C5.03312 14.5347 4.9585 14.3545 4.9585 14.1667V5.95993C4.95854 5.77209 5.03319 5.59195 5.16604 5.45914Z" fill="#37EDB0"/>
</g>
<defs>
<clipPath id="clip0_1_1254">
<rect width="17" height="17" fill="white"/>
</clipPath>
</defs>
</svg>
