<svg width="17" height="17" viewBox="0 0 17 17" fill="none" xmlns="http://www.w3.org/2000/svg">
<g clip-path="url(#clip0_1_1251)">
<path d="M15.5835 10.625H13.4585V2.125H15.5835C15.7714 2.125 15.9515 2.19963 16.0844 2.33247C16.2172 2.4653 16.2918 2.64547 16.2918 2.83333V9.91667C16.2918 10.1045 16.2172 10.2847 16.0844 10.4175C15.9515 10.5504 15.7714 10.625 15.5835 10.625ZM11.8343 11.5409L7.30096 16.0742C7.2407 16.1346 7.16066 16.1713 7.07555 16.1774C6.99044 16.1835 6.90598 16.1587 6.83771 16.1075L6.2335 15.6542C6.06569 15.5282 5.93894 15.3554 5.86923 15.1574C5.79952 14.9595 5.78997 14.7454 5.84179 14.5421L6.6585 11.3333H2.12516C1.74944 11.3333 1.38911 11.1841 1.12343 10.9184C0.857752 10.6527 0.708497 10.2924 0.708497 9.91667V8.42633C0.708306 8.2412 0.744403 8.05783 0.814747 7.88658L3.00775 2.56417C3.06107 2.43437 3.15175 2.32333 3.26827 2.24514C3.3848 2.16695 3.52192 2.12514 3.66225 2.125H11.3335C11.5214 2.125 11.7015 2.19963 11.8344 2.33247C11.9672 2.4653 12.0418 2.64547 12.0418 2.83333V11.0401C12.0418 11.2279 11.9671 11.4081 11.8343 11.5409Z" fill="#FF7581"/>
</g>
<defs>
<clipPath id="clip0_1_1251">
<rect width="17" height="17" fill="white"/>
</clipPath>
</defs>
</svg>
