<svg width="24" height="24" viewBox="0 0 24 24" fill="none" xmlns="http://www.w3.org/2000/svg">
<g clip-path="url(#clip0_67_260)">
<path d="M3.33982 17.0001C2.91709 16.2691 2.58848 15.4875 2.36182 14.6741C2.85512 14.4232 3.26941 14.0407 3.55885 13.569C3.84828 13.0972 4.00158 12.5546 4.00179 12.0012C4.002 11.4477 3.8491 10.905 3.56002 10.4331C3.27094 9.96112 2.85694 9.57834 2.36382 9.32707C2.81585 7.69255 3.67655 6.20002 4.86482 4.99007C5.32891 5.29179 5.86744 5.45923 6.42079 5.47385C6.97415 5.48847 7.52077 5.3497 8.00015 5.0729C8.47952 4.7961 8.87297 4.39207 9.13694 3.90551C9.40092 3.41895 9.52512 2.86884 9.49582 2.31607C11.1379 1.89169 12.861 1.89238 14.5028 2.31807C14.4738 2.87083 14.5982 3.42086 14.8624 3.90728C15.1266 4.39369 15.5202 4.79754 15.9996 5.07413C16.4791 5.35071 17.0258 5.48925 17.5791 5.47442C18.1324 5.45958 18.6709 5.29195 19.1348 4.99007C19.7138 5.58007 20.2278 6.25107 20.6598 7.00007C21.0928 7.74907 21.4168 8.53007 21.6378 9.32607C21.1445 9.57697 20.7302 9.95944 20.4408 10.4312C20.1514 10.9029 19.9981 11.4455 19.9978 11.999C19.9976 12.5524 20.1505 13.0951 20.4396 13.5671C20.7287 14.039 21.1427 14.4218 21.6358 14.6731C21.1838 16.3076 20.3231 17.8001 19.1348 19.0101C18.6707 18.7083 18.1322 18.5409 17.5788 18.5263C17.0255 18.5117 16.4789 18.6504 15.9995 18.9272C15.5201 19.204 15.1267 19.6081 14.8627 20.0946C14.5987 20.5812 14.4745 21.1313 14.5038 21.6841C12.8617 22.1084 11.1386 22.1078 9.49682 21.6821C9.52586 21.1293 9.40141 20.5793 9.13724 20.0929C8.87306 19.6064 8.47946 19.2026 7.99999 18.926C7.52052 18.6494 6.97387 18.5109 6.42054 18.5257C5.86721 18.5406 5.32878 18.7082 4.86482 19.0101C4.27381 18.407 3.76141 17.7317 3.33982 17.0001ZM8.99982 17.1961C10.0654 17.8107 10.8667 18.7971 11.2498 19.9661C11.7488 20.0131 12.2498 20.0141 12.7488 19.9671C13.1322 18.7979 13.9338 17.8115 14.9998 17.1971C16.065 16.5808 17.3203 16.3795 18.5248 16.6321C18.8148 16.2241 19.0648 15.7891 19.2728 15.3341C18.4522 14.4175 17.9989 13.2303 17.9998 12.0001C17.9998 10.7401 18.4698 9.56307 19.2728 8.66607C19.0633 8.21122 18.8123 7.7767 18.5228 7.36807C17.3191 7.62038 16.0646 7.41954 14.9998 6.80407C13.9342 6.18944 13.133 5.20305 12.7498 4.03407C12.2508 3.98707 11.7498 3.98607 11.2508 4.03307C10.8674 5.20221 10.0658 6.18863 8.99982 6.80307C7.9346 7.41938 6.67929 7.62059 5.47482 7.36807C5.18538 7.77635 4.93495 8.21093 4.72682 8.66607C5.54739 9.58263 6.0007 10.7699 5.99982 12.0001C5.99982 13.2601 5.52982 14.4371 4.72682 15.3341C4.93629 15.7889 5.18736 16.2234 5.47682 16.6321C6.68053 16.3798 7.93502 16.5806 8.99982 17.1961ZM11.9998 15.0001C11.2042 15.0001 10.4411 14.684 9.8785 14.1214C9.31589 13.5588 8.99982 12.7957 8.99982 12.0001C8.99982 11.2044 9.31589 10.4414 9.8785 9.87875C10.4411 9.31614 11.2042 9.00007 11.9998 9.00007C12.7955 9.00007 13.5585 9.31614 14.1211 9.87875C14.6837 10.4414 14.9998 11.2044 14.9998 12.0001C14.9998 12.7957 14.6837 13.5588 14.1211 14.1214C13.5585 14.684 12.7955 15.0001 11.9998 15.0001ZM11.9998 13.0001C12.265 13.0001 12.5194 12.8947 12.7069 12.7072C12.8945 12.5196 12.9998 12.2653 12.9998 12.0001C12.9998 11.7348 12.8945 11.4805 12.7069 11.293C12.5194 11.1054 12.265 11.0001 11.9998 11.0001C11.7346 11.0001 11.4802 11.1054 11.2927 11.293C11.1052 11.4805 10.9998 11.7348 10.9998 12.0001C10.9998 12.2653 11.1052 12.5196 11.2927 12.7072C11.4802 12.8947 11.7346 13.0001 11.9998 13.0001Z" fill="white"/>
</g>
<defs>
<clipPath id="clip0_67_260">
<rect width="24" height="24" fill="white"/>
</clipPath>
</defs>
</svg>
