<svg width="9" height="17" viewBox="0 0 9 17" fill="none" xmlns="http://www.w3.org/2000/svg">
<path d="M1.41314 4.82168L3.41066 2.82416V16.1714C3.41066 16.6283 3.78042 16.9981 4.2373 16.9981C4.69418 16.9981 5.06393 16.6283 5.06393 16.1714V2.82416L7.06145 4.82168C7.22295 4.98318 7.43545 5.06393 7.64583 5.06393C7.85621 5.06393 8.06871 4.98318 8.23021 4.82168C8.55322 4.49867 8.55322 3.97379 8.23021 3.65079L4.8238 0.244378C4.7473 0.167877 4.6538 0.106251 4.5518 0.0637507C4.54755 0.0616257 4.5433 0.0616256 4.53905 0.0595006C4.44555 0.0212502 4.34355 0 4.2373 0C4.13104 0 4.02904 0.0212502 3.93554 0.0595006C3.93129 0.0616256 3.92704 0.0616257 3.92279 0.0637507C3.82079 0.106251 3.72729 0.167877 3.65079 0.244378L0.242253 3.65291C-0.0807509 3.97592 -0.0807509 4.5008 0.242253 4.8238C0.565256 5.14468 1.09014 5.14468 1.41314 4.82168Z" fill="white"/>
</svg>
