<svg width="9" height="17" viewBox="0 0 9 17" fill="none" xmlns="http://www.w3.org/2000/svg">
<path d="M7.06145 12.1785L5.06393 14.176V0.826634C5.06393 0.369754 4.69418 0 4.2373 0C3.78042 0 3.41066 0.369754 3.41066 0.826634V14.1739L1.41314 12.1764C1.09014 11.8534 0.567381 11.8534 0.242253 12.1764C-0.0807509 12.4994 -0.0807509 13.0243 0.242253 13.3473L3.65079 16.7558C3.72729 16.8323 3.82079 16.8939 3.92279 16.9364C3.92704 16.9386 3.93129 16.9386 3.93554 16.9407C4.02904 16.9789 4.13104 17.0002 4.2373 17.0002C4.34355 17.0002 4.44555 16.9789 4.53905 16.9407C4.5433 16.9386 4.54755 16.9386 4.5518 16.9364C4.6538 16.8939 4.7473 16.8323 4.8238 16.7558L8.23234 13.3473C8.55534 13.0243 8.55534 12.4994 8.23234 12.1764C7.90934 11.8555 7.38445 11.8555 7.06145 12.1785Z" fill="white"/>
</svg>
